# Blender v2.81 (sub 16) OBJ File: ''
# www.blender.org
mtllib Map1.mtl
o Plane
v -1.000000 0.000000 -0.333333
v -0.333333 0.000000 -0.333333
v -0.333333 0.000000 -1.000000
v -1.000000 0.000000 -1.000000
v 0.333333 -0.000000 1.000000
v 1.000000 -0.000000 1.000000
v 1.000000 -0.000000 0.333333
v 0.333333 -0.000000 0.333333
v -1.000000 -0.000000 1.000000
v -0.333333 -0.000000 1.000000
v -0.333333 -0.000000 0.333333
v -1.000000 -0.000000 0.333333
v 0.333333 0.000000 -0.333333
v 1.000000 0.000000 -0.333333
v 1.000000 0.000000 -1.000000
v 0.333333 0.000000 -1.000000
v -0.333333 0.290323 0.333333
v 0.333333 0.290323 0.333333
v 0.333333 0.290323 -0.333333
v -0.333333 0.290323 -0.333333
v -1.000000 -0.000000 0.333333
v -1.000000 -0.000000 1.000000
v -1.000000 0.000000 -0.333333
v -1.000000 0.000000 -1.000000
v -0.333333 0.000000 -1.000000
v 1.000000 0.000000 -1.000000
v 0.333333 0.000000 -1.000000
v 1.000000 0.000000 -0.333333
v 1.000000 -0.000000 0.333333
v 0.333333 -0.000000 1.000000
v 1.000000 -0.000000 1.000000
v -0.333333 -0.000000 1.000000
v 0.333333 -0.000000 2.000000
v 1.000000 -0.000000 2.000000
v -1.000000 -0.000000 2.000000
v -0.333333 -0.000000 2.000000
v -1.735686 -0.000000 1.264314
v -1.735686 -0.000000 1.735686
v -1.735686 1.000000 1.735686
v -1.735686 1.000000 1.264314
v 1.735686 -0.000000 0.069020
v 1.735686 1.000000 0.069020
v 1.264314 1.000000 0.069020
v 1.264314 -0.000000 0.069020
v -0.333333 0.000000 -2.000000
v -1.000000 0.000000 -2.000000
v 1.000000 0.000000 -2.000000
v 0.333333 0.000000 -2.000000
v 1.264314 1.000000 -0.069020
v 1.264314 0.000000 -0.069020
v 1.735686 0.000000 -1.735686
v 1.264314 0.000000 -1.735686
v 1.264314 1.000000 -1.735686
v 1.735686 1.000000 -1.735686
v -2.000000 -0.000000 0.333333
v -2.000000 -0.000000 1.000000
v 1.264314 0.000000 -1.264314
v 1.735686 0.000000 -1.264314
v 1.735686 1.000000 -1.264314
v 1.264314 1.000000 -1.264314
v -2.000000 0.000000 -1.000000
v -2.000000 0.000000 -0.333333
v -1.264314 -0.000000 0.069020
v -1.264314 0.000000 -0.069020
v -1.264314 1.000000 -0.069020
v -1.264314 1.000000 0.069020
v 2.000000 -0.000000 1.000000
v 2.000000 -0.000000 0.333333
v 2.000000 0.000000 -0.333333
v 2.000000 0.000000 -1.000000
v -0.333333 0.390323 -0.333333
v -0.333333 0.100000 -1.000000
v 0.333333 0.390323 -0.333333
v 1.000000 0.100000 -0.333333
v 0.333333 0.390323 0.333333
v 0.333333 0.100000 1.000000
v -0.333333 0.390323 0.333333
v -1.000000 0.100000 0.333333
v 0.333333 0.100000 -1.000000
v 1.000000 0.100000 0.333333
v -0.333333 0.100000 1.000000
v -1.000000 0.100000 -0.333333
v -0.069020 -0.000000 1.264314
v 0.069020 -0.000000 1.264314
v -0.069020 0.000000 -1.264314
v 0.069020 0.000000 -1.264314
v 0.069020 -0.000000 1.735686
v -0.069020 -0.000000 1.735686
v 1.264314 -0.000000 1.735686
v 1.264314 -0.000000 1.264314
v -1.264314 -0.000000 1.264314
v -1.264314 -0.000000 1.735686
v 0.069020 0.000000 -1.735686
v -0.069020 0.000000 -1.735686
v -1.264314 0.000000 -1.735686
v -1.264314 0.000000 -1.264314
v -1.735686 -0.000000 0.069020
v -1.735686 0.000000 -0.069020
v -2.000000 -0.000000 2.000000
v -1.735686 0.000000 -1.264314
v -1.735686 0.000000 -1.735686
v -2.000000 0.000000 -2.000000
v 1.735686 0.000000 -0.069020
v 1.735686 -0.000000 1.264314
v 1.735686 -0.000000 1.735686
v 2.000000 -0.000000 2.000000
v 2.000000 0.000000 -2.000000
v 0.069020 1.000000 1.264314
v -0.069020 1.000000 1.264314
v -0.069020 1.000000 1.735686
v 0.069020 1.000000 1.735686
v 0.069020 1.000000 -1.264314
v 0.069020 1.000000 -1.735686
v -0.069020 1.000000 -1.735686
v -0.069020 1.000000 -1.264314
v -1.264314 1.000000 1.735686
v -1.264314 1.000000 1.264314
v -1.735686 1.000000 1.264314
v -1.735686 1.000000 1.735686
v -1.264314 1.000000 0.069020
v -1.264314 1.000000 -0.069020
v -1.735686 1.000000 -0.069020
v -1.735686 1.000000 0.069020
v -1.264314 1.000000 -1.264314
v -1.264314 1.000000 -1.735686
v -1.735686 1.000000 -1.735686
v -1.735686 1.000000 -1.264314
v 1.264314 1.000000 -1.735686
v 1.264314 1.000000 -1.264314
v 1.735686 1.000000 -1.264314
v 1.735686 1.000000 -1.735686
v 1.264314 1.000000 1.264314
v 1.264314 1.000000 1.735686
v 1.735686 1.000000 1.735686
v 1.735686 1.000000 1.264314
v 1.264314 1.000000 0.069020
v 1.735686 1.000000 0.069020
v 1.735686 1.000000 -0.069020
v 1.264314 1.000000 -0.069020
v -0.069020 1.000000 1.264314
v 0.069020 1.000000 1.264314
v 1.264314 1.000000 1.264314
v 1.735686 1.000000 1.264314
v -1.735686 1.000000 -1.264314
v -1.735686 1.000000 -1.735686
v 0.069020 1.000000 -1.264314
v -0.069020 1.000000 -1.264314
v 1.735686 1.000000 -0.069020
v -1.264314 1.000000 1.735686
v -1.264314 1.000000 1.264314
v 1.264314 1.000000 1.735686
v -1.735686 1.000000 0.069020
v 1.735686 1.000000 1.735686
v 0.069020 1.000000 1.735686
v -1.735686 1.000000 -0.069020
v -0.069020 1.000000 -1.735686
v 0.069020 1.000000 -1.735686
v -0.069020 1.000000 1.735686
v -1.264314 1.000000 -1.264314
v -1.264314 1.000000 -1.735686
v -2.000000 1.000000 2.000000
v -1.000000 1.000000 2.000000
v 2.000000 1.000000 -1.000000
v 2.000000 1.000000 -2.000000
v 1.000000 1.000000 -2.000000
v 0.333333 1.000000 -2.000000
v -2.000000 1.000000 -1.000000
v -2.000000 1.000000 -0.333333
v -0.333333 1.000000 -2.000000
v -1.000000 1.000000 -2.000000
v -0.333333 1.000000 2.000000
v 0.333333 1.000000 2.000000
v -2.000000 1.000000 0.333333
v -2.000000 1.000000 1.000000
v 1.000000 1.000000 2.000000
v 2.000000 1.000000 1.000000
v 2.000000 1.000000 0.333333
v -2.000000 1.000000 -2.000000
v 2.000000 1.000000 -0.333333
v 2.000000 1.000000 2.000000
vt 0.798114 0.753788
vt 0.883019 0.753788
vt 0.883019 0.829546
vt 0.798114 0.829546
vt 0.789623 0.829546
vt 0.704717 0.829546
vt 0.704717 0.753788
vt 0.789623 0.753788
vt 0.611321 0.829546
vt 0.611321 0.753788
vt 0.696227 0.753788
vt 0.696227 0.829546
vt 0.517924 0.829546
vt 0.517924 0.753788
vt 0.602830 0.753788
vt 0.602830 0.829546
vt 0.976416 0.829545
vt 0.891510 0.829545
vt 0.891510 0.753788
vt 0.976416 0.753788
vt 0.784604 0.837121
vt 0.784604 0.912879
vt 0.747629 0.837121
vt 0.900747 0.837121
vt 0.900747 0.912879
vt 0.863772 0.912879
vt 0.675240 0.837121
vt 0.675240 0.912879
vt 0.638265 0.837121
vt 0.846065 0.837121
vt 0.846065 0.912879
vt 0.809090 0.912879
vt 0.570847 0.912879
vt 0.570847 0.837121
vt 0.607822 0.912879
vt 0.955429 0.912879
vt 0.918454 0.912879
vt 0.955429 0.837121
vt 0.565876 0.837121
vt 0.565876 0.912879
vt 0.528901 0.837121
vt 0.729922 0.912879
vt 0.692947 0.912879
vt 0.729922 0.837121
vt 0.229245 0.586761
vt 0.144340 0.586761
vt 0.144340 0.504132
vt 0.229245 0.504132
vt 0.237736 0.586761
vt 0.237736 0.504132
vt 0.322642 0.504132
vt 0.322642 0.586761
vt 0.331132 0.586761
vt 0.331132 0.504132
vt 0.416038 0.504132
vt 0.416038 0.586761
vt 0.509434 0.586761
vt 0.424528 0.586761
vt 0.424528 0.504132
vt 0.509434 0.504132
vt 0.000000 0.000000
vt 0.000000 0.000000
vt 0.000000 0.000000
vt 0.000000 0.000000
vt 0.000000 0.000000
vt 0.000000 0.000000
vt 0.000000 0.000000
vt 0.000000 0.000000
vt 0.000000 0.000000
vt 0.000000 0.000000
vt 0.000000 0.000000
vt 0.000000 0.000000
vt 0.000000 0.000000
vt 0.000000 0.000000
vt 0.000000 0.000000
vt 0.000000 0.000000
vt 0.000000 0.000000
vt 0.000000 0.000000
vt 0.000000 0.000000
vt 0.000000 0.000000
vt 0.000000 0.000000
vt 0.000000 0.000000
vt 0.000000 0.000000
vt 0.000000 0.000000
vt 0.152830 0.136364
vt 0.152830 0.212121
vt 0.025472 0.212121
vt 0.025472 0.136364
vt 0.152830 0.287879
vt 0.152830 0.363636
vt 0.025472 0.363636
vt 0.025472 0.287879
vt 0.401239 0.710211
vt 0.341206 0.710211
vt 0.341206 0.596574
vt 0.401239 0.596574
vt 0.335203 0.721574
vt 0.335203 0.835211
vt 0.275169 0.835211
vt 0.275169 0.721574
vt 0.407548 0.363636
vt 0.407547 0.287879
vt 0.534906 0.287879
vt 0.534906 0.363636
vt 0.407547 0.212121
vt 0.407547 0.136364
vt 0.534906 0.136364
vt 0.534906 0.212121
vt 0.490495 0.835211
vt 0.490495 0.721574
vt 0.508076 0.721574
vt 0.508076 0.835211
vt 0.780827 0.505682
vt 0.840860 0.505682
vt 0.840860 0.619318
vt 0.780827 0.619318
vt 0.237736 0.363636
vt 0.237736 0.477273
vt 0.152830 0.477273
vt 0.846864 0.505682
vt 0.906897 0.505682
vt 0.906897 0.619318
vt 0.846864 0.619318
vt 0.322642 0.363636
vt 0.407548 0.477273
vt 0.322642 0.477273
vt 0.471156 0.596574
vt 0.488737 0.596574
vt 0.488737 0.710211
vt 0.471157 0.710211
vt 0.237736 0.136364
vt 0.152830 0.022727
vt 0.237736 0.022727
vt 0.322642 0.136364
vt 0.322642 0.022727
vt 0.407547 0.022727
vt 0.576714 0.744318
vt 0.516681 0.744318
vt 0.516681 0.630682
vt 0.576714 0.630682
vt 0.203129 0.710211
vt 0.143096 0.710211
vt 0.143096 0.596574
vt 0.203129 0.596574
vt 0.680211 0.912879
vt 0.717186 0.837121
vt 0.905718 0.912879
vt 0.942693 0.837121
vt 0.796354 0.912879
vt 0.833329 0.837121
vt 0.851036 0.912879
vt 0.888011 0.837121
vt 0.553140 0.912879
vt 0.516165 0.837121
vt 0.583583 0.837121
vt 0.620558 0.912879
vt 0.662504 0.912879
vt 0.625529 0.837121
vt 0.771868 0.912879
vt 0.734893 0.837121
vt 0.288979 0.393672
vt 0.271399 0.393672
vt 0.288979 0.106328
vt 0.271399 0.106328
vt 0.119168 0.257843
vt 0.119168 0.242157
vt 0.441210 0.257843
vt 0.441210 0.242157
vt 0.059134 0.242157
vt 0.059134 0.257843
vt 0.059134 0.106328
vt 0.119168 0.106328
vt 0.119168 0.393672
vt 0.059134 0.393672
vt 0.501243 0.242157
vt 0.501243 0.257843
vt 0.501243 0.393672
vt 0.441210 0.393672
vt 0.441210 0.106328
vt 0.501243 0.106328
vt 0.271399 0.447237
vt 0.288979 0.447237
vt 0.059134 0.447237
vt 0.119168 0.447237
vt 0.025472 0.477273
vt 0.441210 0.447237
vt 0.501243 0.447237
vt 0.534906 0.477273
vt 0.271399 0.052763
vt 0.288979 0.052763
vt 0.119168 0.052763
vt 0.059134 0.052763
vt 0.025472 0.022727
vt 0.501243 0.052763
vt 0.441210 0.052763
vt 0.534906 0.022727
vt 0.999121 0.424086
vt 0.981540 0.424086
vt 0.981540 0.370521
vt 0.999121 0.370521
vt 0.999121 0.429443
vt 0.999121 0.483008
vt 0.981540 0.483008
vt 0.981540 0.429443
vt 0.203129 0.843571
vt 0.203129 0.897136
vt 0.143096 0.897136
vt 0.143096 0.843571
vt 0.981540 0.252678
vt 0.999121 0.252678
vt 0.999121 0.306243
vt 0.981540 0.306243
vt 0.335203 0.843571
vt 0.335203 0.897136
vt 0.275169 0.897136
vt 0.275169 0.843571
vt 0.209133 0.897136
vt 0.209133 0.843571
vt 0.269166 0.843571
vt 0.269166 0.897136
vt 0.341206 0.897136
vt 0.341206 0.843571
vt 0.401239 0.843571
vt 0.401239 0.897136
vt 0.981540 0.365165
vt 0.981540 0.311600
vt 0.999121 0.311600
vt 0.999121 0.365165
vt 0.488737 0.835211
vt 0.471157 0.835211
vt 0.471156 0.721574
vt 0.488737 0.721574
vt 0.576714 0.619318
vt 0.516681 0.619318
vt 0.516681 0.505682
vt 0.576714 0.505682
vt 0.642751 0.619318
vt 0.582717 0.619318
vt 0.582717 0.505682
vt 0.642751 0.505682
vt 0.994395 0.630682
vt 0.994395 0.744318
vt 0.976814 0.744318
vt 0.976814 0.630682
vt 0.467276 0.721574
vt 0.467276 0.835211
vt 0.407242 0.835211
vt 0.407242 0.721574
vt 0.972934 0.619318
vt 0.912900 0.619318
vt 0.912900 0.505682
vt 0.972934 0.505682
vt 0.143096 0.721574
vt 0.203129 0.721574
vt 0.203129 0.835211
vt 0.143096 0.835211
vt 0.269166 0.710211
vt 0.209133 0.710211
vt 0.209133 0.596574
vt 0.269166 0.596574
vt 0.972934 0.744318
vt 0.912900 0.744318
vt 0.912900 0.630682
vt 0.972934 0.630682
vt 0.780827 0.630682
vt 0.840860 0.630682
vt 0.840861 0.744318
vt 0.780827 0.744318
vt 0.407243 0.596574
vt 0.467276 0.596574
vt 0.467276 0.710211
vt 0.407243 0.710211
vt 0.209133 0.721574
vt 0.269166 0.721574
vt 0.269166 0.835211
vt 0.209133 0.835211
vt 0.490495 0.710211
vt 0.490495 0.596574
vt 0.508076 0.596574
vt 0.508076 0.710211
vt 0.708787 0.619318
vt 0.648754 0.619318
vt 0.648754 0.505682
vt 0.708787 0.505682
vt 0.401239 0.835211
vt 0.341206 0.835211
vt 0.341206 0.721574
vt 0.401239 0.721574
vt 0.708787 0.744318
vt 0.648754 0.744318
vt 0.648754 0.630682
vt 0.708787 0.630682
vt 0.846864 0.630682
vt 0.906897 0.630682
vt 0.906897 0.744318
vt 0.846864 0.744318
vt 0.999121 0.130682
vt 0.999121 0.244318
vt 0.981540 0.244318
vt 0.981540 0.130682
vt 0.335203 0.596574
vt 0.335203 0.710211
vt 0.275169 0.710211
vt 0.275169 0.596574
vt 0.714791 0.619318
vt 0.714791 0.505682
vt 0.774824 0.505682
vt 0.774824 0.619318
vt 0.976814 0.505682
vt 0.994395 0.505682
vt 0.994395 0.619318
vt 0.976814 0.619318
vt 0.999121 0.119318
vt 0.981540 0.119318
vt 0.981540 0.005682
vt 0.999121 0.005682
vt 0.642751 0.744318
vt 0.582717 0.744318
vt 0.582717 0.630682
vt 0.642751 0.630682
vt 0.714791 0.630682
vt 0.774824 0.630682
vt 0.774824 0.744318
vt 0.714791 0.744318
vt 0.000000 0.000000
vt 0.000000 0.000000
vt 0.000000 0.000000
vt 0.000000 0.000000
vt 0.000000 0.000000
vt 0.000000 0.000000
vt 0.000000 0.000000
vt 0.000000 0.000000
vt 0.000000 0.000000
vt 0.000000 0.000000
vt 0.000000 0.000000
vt 0.000000 0.000000
vt 0.000000 0.000000
vt 0.000000 0.000000
vt 0.000000 0.000000
vt 0.000000 0.000000
vt 0.000000 0.000000
vt 0.000000 0.000000
vt 0.000000 0.000000
vt 0.000000 0.000000
vt 0.000000 0.000000
vt 0.000000 0.000000
vt 0.000000 0.000000
vt 0.000000 0.000000
vt 0.000000 0.000000
vt 0.000000 0.000000
vt 0.000000 0.000000
vt 0.000000 0.000000
vt 0.000000 0.000000
vt 0.000000 0.000000
vt 0.000000 0.000000
vt 0.000000 0.000000
vt 0.000000 0.000000
vt 0.000000 0.000000
vt 0.000000 0.000000
vt 0.000000 0.000000
vt 0.000000 0.000000
vt 0.000000 0.000000
vt 0.000000 0.000000
vt 0.000000 0.000000
vt 0.000000 0.000000
vt 0.000000 0.000000
vt 0.000000 0.000000
vt 0.000000 0.000000
vt 0.000000 0.000000
vt 0.000000 0.000000
vt 0.000000 0.000000
vt 0.000000 0.000000
vt 0.000000 0.000000
vt 0.000000 0.000000
vt 0.000000 0.000000
vt 0.000000 0.000000
vt 0.000000 0.000000
vt 0.000000 0.000000
vt 0.000000 0.000000
vt 0.000000 0.000000
vt 0.000000 0.000000
vt 0.000000 0.000000
vt 0.000000 0.000000
vt 0.000000 0.000000
vt 0.000000 0.000000
vt 0.000000 0.000000
vt 0.000000 0.000000
vt 0.000000 0.000000
vt 0.974293 0.363636
vt 0.974293 0.477273
vt 0.846935 0.477273
vt 0.846935 0.363636
vt 0.566746 0.477273
vt 0.566746 0.363636
vt 0.694104 0.363636
vt 0.694104 0.477273
vt 0.706840 0.212121
vt 0.706840 0.136364
vt 0.834199 0.136364
vt 0.834199 0.212121
vt 0.006368 0.712121
vt 0.006368 0.636364
vt 0.133726 0.636364
vt 0.133726 0.712121
vt 0.706840 0.022727
vt 0.834199 0.022727
vt 0.706840 0.363636
vt 0.706840 0.287879
vt 0.834199 0.287879
vt 0.834199 0.363636
vt 0.974293 0.212121
vt 0.974293 0.287879
vt 0.846935 0.287879
vt 0.846935 0.212121
vt 0.006368 0.863636
vt 0.006368 0.787879
vt 0.133726 0.787879
vt 0.133726 0.863636
vt 0.974293 0.136364
vt 0.846935 0.136364
vt 0.566746 0.212121
vt 0.566746 0.136364
vt 0.694104 0.136364
vt 0.694104 0.212121
vt 0.706840 0.477273
vt 0.834199 0.477273
vt 0.006368 0.977273
vt 0.133726 0.977273
vt 0.566746 0.287879
vt 0.694104 0.287879
vt 0.006368 0.522727
vt 0.133726 0.522727
vt 0.974293 0.022727
vt 0.846935 0.022727
vt 0.566746 0.022727
vt 0.694104 0.022727
vn 0.0000 1.0000 0.0000
vn 0.0000 0.0000 -1.0000
vn 0.0000 -0.0000 1.0000
vn -1.0000 -0.0000 0.0000
vn 1.0000 -0.0000 0.0000
vn -0.3993 0.9168 0.0000
vn 0.0000 0.9168 -0.3993
vn 0.3993 0.9168 0.0000
vn 0.0000 0.9168 0.3993
vn 0.0000 0.0000 0.0000
usemtl None
s 1
f 1/1/1 2/2/1 3/3/1 4/4/1
f 5/5/1 6/6/1 7/7/1 8/8/1
f 9/9/1 10/10/1 11/11/1 12/12/1
f 13/13/1 14/14/1 15/15/1 16/16/1
f 17/17/1 18/18/1 19/19/1 20/20/1
f 2/21/2 1/22/2 20/23/2
f 12/24/3 11/25/3 17/26/3
f 11/27/4 10/28/4 17/29/4
f 5/30/5 8/31/5 18/32/5
f 8/33/3 7/34/3 18/35/3
f 13/36/2 19/37/2 14/38/2
f 13/39/5 16/40/5 19/41/5
f 2/42/4 20/43/4 3/44/4
f 1/45/6 12/46/6 17/47/6 20/48/6
f 3/49/7 20/50/7 19/51/7 16/52/7
f 14/53/8 19/54/8 18/55/8 7/56/8
f 10/57/9 5/58/9 18/59/9 17/60/9
f 9/61/10 12/62/10 21/63/10 22/64/10
f 12/62/10 1/65/10 23/66/10 21/63/10
f 1/65/10 4/67/10 24/68/10 23/66/10
f 4/67/10 3/69/3 25/70/3 24/68/10
f 16/71/3 15/72/10 26/73/10 27/74/3
f 7/75/10 14/76/10 28/77/10 29/78/10
f 6/79/10 5/80/3 30/81/3 31/82/10
f 7/75/10 6/79/10 31/82/10 29/78/10
f 10/83/3 9/61/10 22/64/10 32/84/3
f 16/71/3 3/69/3 25/70/3 27/74/3
f 15/72/10 14/76/10 28/77/10 26/73/10
f 5/80/3 10/83/3 32/84/3 30/81/3
f 31/85/1 30/86/1 33/87/1 34/88/1
f 32/89/1 22/90/1 35/91/1 36/92/1
f 37/93/4 38/94/4 39/95/4 40/96/4
f 41/97/3 42/98/3 43/99/3 44/100/3
f 24/101/1 25/102/1 45/103/1 46/104/1
f 27/105/1 26/106/1 47/107/1 48/108/1
f 44/109/4 43/110/4 49/111/4 50/112/4
f 51/113/2 52/114/2 53/115/2 54/116/2
f 22/90/1 21/117/1 55/118/1 56/119/1
f 57/120/3 58/121/3 59/122/10 60/123/10
f 23/124/1 24/101/1 61/125/1 62/126/1
f 63/127/5 64/128/5 65/129/5 66/130/5
f 29/131/1 31/85/1 67/132/1 68/133/1
f 26/106/1 28/134/1 69/135/1 70/136/1
f 58/137/5 51/138/5 54/139/5 59/140/5
f 52/141/4 57/142/4 60/143/4 53/144/4
f 3/44/4 20/43/4 71/145/4 72/146/4
f 14/38/2 19/37/2 73/147/2 74/148/2
f 18/32/5 75/149/5 76/150/5 5/30/5
f 17/26/3 77/151/3 78/152/3 12/24/3
f 19/41/5 16/40/5 79/153/5 73/154/5
f 18/35/3 7/34/3 80/155/3 75/156/3
f 10/28/4 81/157/4 77/158/4 17/29/4
f 1/22/2 82/159/2 71/160/2 20/23/2
f 64/161/1 63/162/1 21/117/1 23/124/1
f 50/163/1 28/134/1 29/131/1 44/164/1
f 83/165/1 84/166/1 30/86/1 32/89/1
f 85/167/1 25/102/1 27/105/1 86/168/1
f 87/169/1 88/170/1 36/92/1 33/87/1
f 89/171/1 90/172/1 31/85/1 34/88/1
f 84/166/1 87/169/1 33/87/1 30/86/1
f 88/170/1 83/165/1 32/89/1 36/92/1
f 91/173/1 92/174/1 35/91/1 22/90/1
f 93/175/1 48/108/1 45/103/1 94/176/1
f 86/168/1 27/105/1 48/108/1 93/175/1
f 94/176/1 45/103/1 25/102/1 85/167/1
f 95/177/1 96/178/1 24/101/1 46/104/1
f 57/179/1 52/180/1 47/107/1 26/106/1
f 97/181/1 98/182/1 62/126/1 55/118/1
f 38/183/1 37/184/1 56/119/1 99/185/1
f 100/186/1 101/187/1 102/188/1 61/125/1
f 92/174/1 38/183/1 99/185/1 35/91/1
f 37/184/1 91/173/1 22/90/1 56/119/1
f 63/162/1 97/181/1 55/118/1 21/117/1
f 98/182/1 64/161/1 23/124/1 62/126/1
f 96/178/1 100/186/1 61/125/1 24/101/1
f 101/187/1 95/177/1 46/104/1 102/188/1
f 41/189/1 68/133/1 69/135/1 103/190/1
f 104/191/1 105/192/1 106/193/1 67/132/1
f 51/194/1 58/195/1 70/136/1 107/196/1
f 52/180/1 51/194/1 107/196/1 47/107/1
f 58/195/1 57/179/1 26/106/1 70/136/1
f 44/164/1 29/131/1 68/133/1 41/189/1
f 90/172/1 104/191/1 67/132/1 31/85/1
f 103/190/1 69/135/1 28/134/1 50/163/1
f 105/192/1 89/171/1 34/88/1 106/193/1
f 108/197/1 109/198/1 110/199/1 111/200/1
f 112/201/1 113/202/1 114/203/1 115/204/1
f 116/205/1 117/206/1 118/207/1 119/208/1
f 120/209/1 121/210/1 122/211/1 123/212/1
f 124/213/1 125/214/1 126/215/1 127/216/1
f 128/217/1 129/218/1 130/219/1 131/220/1
f 132/221/1 133/222/1 134/223/1 135/224/1
f 136/225/1 137/226/1 138/227/1 139/228/1
f 84/229/2 83/230/2 140/231/2 141/232/2
f 104/233/2 90/234/2 142/235/2 143/236/2
f 101/237/4 100/238/4 144/239/4 145/240/4
f 86/241/3 146/242/3 147/243/3 85/244/3
f 50/245/2 49/246/2 148/247/2 103/248/2
f 38/249/3 92/250/3 149/251/10 39/252/10
f 91/253/2 37/254/2 40/255/2 150/256/2
f 90/257/4 89/258/4 151/259/4 142/260/4
f 97/261/3 63/262/3 66/263/10 152/264/10
f 89/265/3 105/266/3 153/267/10 151/268/10
f 87/269/5 84/270/5 141/271/5 154/272/5
f 64/273/2 98/274/2 155/275/2 65/276/2
f 94/277/2 156/278/2 157/279/2 93/280/2
f 83/281/4 88/282/4 158/283/4 140/284/4
f 100/285/3 96/286/3 159/287/10 144/288/10
f 92/289/5 91/290/5 150/291/5 149/292/5
f 95/293/2 101/294/2 145/295/2 160/296/2
f 103/297/5 148/298/5 42/299/5 41/300/5
f 93/301/5 157/302/5 146/303/5 86/304/5
f 85/305/4 147/306/4 156/307/4 94/308/4
f 88/309/3 87/310/3 154/311/10 158/312/10
f 98/313/4 97/314/4 152/315/4 155/316/4
f 96/317/5 95/318/5 160/319/5 159/320/5
f 105/321/5 104/322/5 143/323/5 153/324/5
f 111/325/10 110/326/10 158/327/10 154/328/10
f 113/329/10 114/330/10 156/331/10 157/332/10
f 123/333/10 122/334/10 155/335/10 152/336/10
f 119/337/10 118/338/10 40/339/10 39/340/10
f 127/341/10 126/342/10 145/343/10 144/344/10
f 116/345/10 119/337/10 39/340/10 149/346/10
f 126/342/10 125/347/10 160/348/10 145/343/10
f 137/349/10 138/350/10 148/351/10 42/352/10
f 135/353/10 134/354/10 153/355/10 143/356/10
f 131/357/10 130/358/10 59/359/10 54/360/10
f 128/361/10 131/357/10 54/360/10 53/362/10
f 134/354/10 133/363/10 151/364/10 153/355/10
f 121/365/10 120/366/10 66/367/10 65/368/10
f 139/369/10 136/370/10 43/371/10 49/372/10
f 109/373/10 108/374/10 141/375/10 140/376/10
f 115/377/10 112/378/10 146/379/10 147/380/10
f 133/363/10 132/381/10 142/382/10 151/364/10
f 108/374/10 111/325/10 154/328/10 141/375/10
f 110/326/10 109/373/10 140/376/10 158/327/10
f 117/383/10 116/345/10 149/346/10 150/384/10
f 112/378/10 113/329/10 157/332/10 146/379/10
f 114/330/10 115/377/10 147/380/10 156/331/10
f 125/347/10 124/385/10 159/386/10 160/348/10
f 129/387/10 128/361/10 53/362/10 60/388/10
f 118/338/10 117/383/10 150/384/10 40/339/10
f 120/366/10 123/333/10 152/336/10 66/367/10
f 122/334/10 121/365/10 65/368/10 155/335/10
f 124/385/10 127/341/10 144/344/10 159/386/10
f 130/358/10 129/387/10 60/388/10 59/359/10
f 136/370/10 137/349/10 42/352/10 43/371/10
f 132/381/10 135/353/10 143/356/10 142/382/10
f 138/350/10 139/369/10 49/372/10 148/351/10
f 35/389/2 99/390/2 161/391/2 162/392/2
f 107/393/4 70/394/4 163/395/4 164/396/4
f 48/397/3 47/398/3 165/399/3 166/400/3
f 62/401/5 61/402/5 167/403/5 168/404/5
f 47/398/3 107/405/3 164/406/3 165/399/3
f 46/407/3 45/408/3 169/409/3 170/410/3
f 33/411/2 36/412/2 171/413/2 172/414/2
f 36/412/2 35/389/2 162/392/2 171/413/2
f 56/415/5 55/416/5 173/417/5 174/418/5
f 34/419/2 33/411/2 172/414/2 175/420/2
f 55/416/5 62/401/5 168/404/5 173/417/5
f 68/421/4 67/422/4 176/423/4 177/424/4
f 102/425/3 46/407/3 170/410/3 178/426/3
f 99/427/5 56/415/5 174/418/5 161/428/5
f 70/394/4 69/429/4 179/430/4 163/395/4
f 68/421/4 177/424/4 179/430/4 69/429/4
f 61/402/5 102/431/5 178/432/5 167/403/5
f 106/433/2 34/419/2 175/420/2 180/434/2
f 48/397/3 166/400/3 169/409/3 45/408/3
f 67/422/4 106/435/4 180/436/4 176/423/4
