# Blender v2.81 (sub 16) OBJ File: ''
# www.blender.org
mtllib Rock3.mtl
o Rock_Cube.003
v -0.012671 0.127163 0.923320
v 1.000000 -1.000000 -1.000000
v -0.146628 0.636704 0.562616
v 1.003228 -0.993532 0.995905
v 0.065145 -1.207806 1.163240
v -1.000000 -1.000000 -1.000000
v -0.003099 -1.149997 -1.491549
v -0.950354 -1.041740 1.015287
v 0.577868 0.790752 -0.344161
v 0.844553 0.160632 -0.447087
v 0.337869 0.569069 0.393208
v 0.656917 0.345667 0.706790
v -0.384876 1.032022 -0.829644
v -0.737673 0.412518 -0.902352
v -0.608671 0.940281 0.063704
v -0.885228 0.498606 0.683746
v 0.050014 0.675792 -0.364470
v 0.044683 0.580214 -0.814094
v -1.579348 -1.027934 0.006138
v 1.614370 -1.131202 -0.023128
v 0.450910 0.664083 0.038820
v 1.418711 0.248015 0.133903
v -0.557384 1.321217 -0.712325
v -0.996629 0.555302 -0.062396
v -0.191851 0.694338 -0.007542
v 0.002454 -1.187727 0.011933
vt 0.375000 0.875000
vt 0.572540 0.875000
vt 0.572540 1.000000
vt 0.375000 1.000000
vt 0.375000 0.125000
vt 0.572540 0.125000
vt 0.572540 0.250000
vt 0.375000 0.250000
vt 0.572540 0.375000
vt 0.375000 0.375000
vt 0.250000 0.625000
vt 0.375000 0.625000
vt 0.375000 0.750000
vt 0.250000 0.750000
vt 0.750000 0.625000
vt 0.822540 0.625000
vt 0.822540 0.697540
vt 0.750000 0.697540
vt 0.572540 0.625000
vt 0.572540 0.750000
vt 0.875000 0.750000
vt 0.750000 0.750000
vt 0.677460 0.625000
vt 0.677460 0.697540
vt 0.822540 0.552460
vt 0.875000 0.500000
vt 0.875000 0.625000
vt 0.750000 0.552460
vt 0.677460 0.552460
vt 0.625000 0.500000
vt 0.750000 0.500000
vt 0.572540 0.500000
vt 0.375000 0.500000
vt 0.625000 0.750000
vt 0.125000 0.625000
vt 0.125000 0.750000
vt 0.125000 0.500000
vt 0.250000 0.500000
vt 0.375000 0.000000
vt 0.572540 0.000000
vn -0.1445 0.1923 0.9706
vn -0.8754 0.2510 -0.4131
vn -0.2162 0.2539 -0.9428
vn 0.1117 -0.9904 0.0819
vn 0.5232 0.8096 0.2661
vn 0.7578 0.1815 0.6267
vn -0.0206 0.7192 0.6945
vn 0.3392 0.8855 0.3175
vn -0.8275 0.2674 -0.4937
vn 0.3467 0.6441 -0.6819
vn 0.4442 0.3648 -0.8183
vn 0.4309 0.3815 -0.8178
vn 0.1359 0.7149 0.6858
vn 0.1036 0.9801 0.1694
vn -0.1259 -0.9917 0.0248
vn 0.1710 0.2172 0.9610
vn -0.1294 -0.9900 -0.0555
vn -0.0778 0.9913 0.1061
vn -0.7222 0.6566 0.2173
vn 0.6235 0.7376 -0.2592
vn 0.7695 0.2684 -0.5795
vn 0.6848 0.7164 0.1335
vn 0.0942 -0.9914 -0.0911
vn -0.8923 0.2345 0.3858
usemtl Material.003
s 1
f 5/1/1 1/2/1 16/3/1 8/4/1
f 19/5/2 24/6/2 14/7/2 6/8/2
f 6/8/3 14/7/3 18/9/3 7/10/3
f 26/11/4 20/12/4 4/13/4 5/14/4
f 25/15/5 23/16/5 15/17/5 3/18/5
f 20/12/6 22/19/6 12/20/6 4/13/6
f 3/18/7 15/17/7 16/21/7 1/22/7
f 21/23/8 11/24/8 12/20/8 22/19/8
f 23/16/9 13/25/9 14/26/9 24/27/9
f 17/28/10 9/29/10 10/30/10 18/31/10
f 7/10/11 18/9/11 10/32/11 2/33/11
f 13/25/12 17/28/12 18/31/12 14/26/12
f 11/24/13 3/18/13 1/22/13 12/34/13
f 21/23/14 25/15/14 3/18/14 11/24/14
f 19/35/15 26/11/15 5/14/15 8/36/15
f 4/13/16 12/20/16 1/2/16 5/1/16
f 6/37/17 7/38/17 26/11/17 19/35/17
f 9/29/18 17/28/18 25/15/18 21/23/18
f 15/17/19 23/16/19 24/27/19 16/21/19
f 9/29/20 21/23/20 22/19/20 10/32/20
f 2/33/21 10/32/21 22/19/21 20/12/21
f 17/28/22 13/25/22 23/16/22 25/15/22
f 7/38/23 2/33/23 20/12/23 26/11/23
f 8/39/24 16/40/24 24/6/24 19/5/24
