# Blender v2.81 (sub 16) OBJ File: ''
# www.blender.org
mtllib Crate.mtl
o Crate_Cube.001
v -1.000000 -0.900000 0.900000
v -0.900000 1.000000 0.900000
v -0.900000 -0.900000 -1.000000
v -0.900000 0.900000 -1.000000
v 1.000000 -0.900000 0.900000
v 1.000000 0.900000 0.900000
v 1.000000 -0.900000 -0.900000
v 1.000000 0.900000 -0.900000
v 0.900000 0.900000 -1.000000
v 0.900000 -0.900000 -1.000000
v 0.900000 -0.900000 1.000000
v 0.900000 1.000000 0.900000
v -0.900000 1.000000 -0.900000
v -1.000000 -0.900000 -0.900000
v 0.900000 -1.000000 -0.900000
v 0.900000 1.000000 -0.900000
v -1.000000 0.900000 0.900000
v -1.000000 0.900000 -0.900000
v 1.000000 1.000000 -1.000000
v 0.900000 0.900000 1.000000
v -0.900000 -1.000000 -0.900000
v -0.900000 -0.900000 1.000000
v -0.900000 0.900000 1.000000
v -1.000000 1.000000 -1.000000
v -0.900000 -1.000000 0.900000
v -1.000000 1.000000 1.000000
v 1.000000 1.000000 1.000000
v 0.900000 -1.000000 0.900000
v -1.000000 -1.000000 -1.000000
v -1.000000 -1.000000 1.000000
v 1.000000 -1.000000 -1.000000
v 1.000000 -1.000000 1.000000
v 1.000000 0.900000 -0.900000
v 1.000000 -0.900000 -0.900000
v 1.000000 -0.900000 0.900000
v 1.000000 0.900000 0.900000
v -0.900000 0.900000 -1.000000
v -0.900000 -0.900000 -1.000000
v 0.900000 -0.900000 -1.000000
v 0.900000 0.900000 -1.000000
v -0.900000 1.000000 0.900000
v -0.900000 1.000000 -0.900000
v 0.900000 1.000000 -0.900000
v 0.900000 1.000000 0.900000
v -1.000000 -0.900000 -0.900000
v -1.000000 -0.900000 0.900000
v -1.000000 0.900000 0.900000
v -1.000000 0.900000 -0.900000
v -0.900000 -0.900000 1.000000
v -0.900000 0.900000 1.000000
v 0.900000 0.900000 1.000000
v 0.900000 -0.900000 1.000000
v -0.900000 -1.000000 -0.900000
v -0.900000 -1.000000 0.900000
v 0.900000 -1.000000 -0.900000
v 0.900000 -1.000000 0.900000
v -0.900000 -0.900000 -0.900000
v -0.900000 -0.900000 0.900000
v -0.900000 0.900000 0.900000
v -0.900000 0.900000 -0.900000
v -0.900000 -0.900000 0.900000
v -0.900000 0.900000 0.900000
v 0.900000 0.900000 0.900000
v 0.900000 -0.900000 0.900000
v 0.900000 0.900000 -0.900000
v 0.900000 -0.900000 -0.900000
v 0.900000 -0.900000 0.900000
v 0.900000 0.900000 0.900000
v -0.900000 0.900000 -0.900000
v -0.900000 -0.900000 -0.900000
v 0.900000 -0.900000 -0.900000
v 0.900000 0.900000 -0.900000
v -0.900000 0.900000 0.900000
v -0.900000 0.900000 -0.900000
v 0.900000 0.900000 -0.900000
v 0.900000 0.900000 0.900000
v -0.900000 -0.900000 -0.900000
v -0.900000 -0.900000 0.900000
v 0.900000 -0.900000 -0.900000
v 0.900000 -0.900000 0.900000
vt 0.000000 0.000000
vt 0.000000 0.000000
vt 0.000000 0.000000
vt 0.000000 0.000000
vt 0.000000 0.000000
vt 0.000000 0.000000
vt 0.000000 0.000000
vt 0.000000 0.000000
vt 0.000000 0.000000
vt 0.000000 0.000000
vt 0.000000 0.000000
vt 0.000000 0.000000
vt 0.000000 0.000000
vt 0.000000 0.000000
vt 0.000000 0.000000
vt 0.000000 0.000000
vt 0.000000 0.000000
vt 0.000000 0.000000
vt 0.000000 0.000000
vt 0.000000 0.000000
vt 0.023924 0.239234
vt 0.239234 0.239234
vt 0.251196 0.251196
vt 0.011962 0.251196
vt 0.239234 0.023923
vt 0.251196 0.011962
vt 0.023923 0.023924
vt 0.011962 0.011962
vt 0.023923 0.502392
vt 0.239234 0.502392
vt 0.251196 0.514354
vt 0.011962 0.514354
vt 0.239234 0.287081
vt 0.251196 0.275120
vt 0.023923 0.287081
vt 0.011962 0.275120
vt 0.023923 0.765550
vt 0.239234 0.765550
vt 0.251196 0.777512
vt 0.011962 0.777512
vt 0.239234 0.550239
vt 0.251196 0.538278
vt 0.023923 0.550239
vt 0.011962 0.538278
vt 0.502392 0.239234
vt 0.502392 0.023923
vt 0.514354 0.011962
vt 0.514354 0.251196
vt 0.287081 0.239234
vt 0.275119 0.251196
vt 0.287081 0.023923
vt 0.275119 0.011962
vt 0.502392 0.502392
vt 0.502392 0.287081
vt 0.514354 0.275120
vt 0.514354 0.514354
vt 0.287081 0.287081
vt 0.287081 0.502392
vt 0.275119 0.514354
vt 0.275119 0.275120
vt 0.765550 0.239234
vt 0.765550 0.023923
vt 0.777511 0.011962
vt 0.777511 0.251196
vt 0.550239 0.239234
vt 0.538277 0.251196
vt 0.550239 0.023923
vt 0.538277 0.011962
vt 0.999402 0.010766
vt 0.999402 0.226077
vt 0.987440 0.226077
vt 0.987440 0.010766
vt 0.947966 0.226076
vt 0.947966 0.010766
vt 0.959928 0.010766
vt 0.959928 0.226076
vt 0.565191 0.773923
vt 0.565191 0.989234
vt 0.553229 0.989234
vt 0.553229 0.773923
vt 0.869019 0.226076
vt 0.869019 0.010766
vt 0.880981 0.010766
vt 0.880981 0.226076
vt 0.803229 0.226077
vt 0.803229 0.010766
vt 0.815191 0.010766
vt 0.815191 0.226077
vt 0.921651 0.226077
vt 0.921651 0.010766
vt 0.933612 0.010766
vt 0.933612 0.226077
vt 0.000000 0.000000
vt 0.000000 0.000000
vt 0.000000 0.000000
vt 0.000000 0.000000
vt 0.000000 0.000000
vt 0.000000 0.000000
vt 0.000000 0.000000
vt 0.000000 0.000000
vt 0.000000 0.000000
vt 0.000000 0.000000
vt 0.000000 0.000000
vt 0.000000 0.000000
vt 0.000000 0.000000
vt 0.000000 0.000000
vt 0.000000 0.000000
vt 0.000000 0.000000
vt 0.000000 0.000000
vt 0.000000 0.000000
vt 0.000000 0.000000
vt 0.000000 0.000000
vt 0.000000 0.000000
vt 0.000000 0.000000
vt 0.000000 0.000000
vt 0.000000 0.000000
vt 0.000000 0.000000
vt 0.000000 0.000000
vt 0.000000 0.000000
vt 0.000000 0.000000
vt 0.989234 0.489234
vt 0.773923 0.489234
vt 0.773923 0.273923
vt 0.989234 0.273923
vt 0.841507 0.010766
vt 0.841507 0.226076
vt 0.829545 0.226077
vt 0.829545 0.010766
vt 0.566387 0.989234
vt 0.566387 0.773923
vt 0.578349 0.773923
vt 0.578349 0.989234
vt 0.579545 0.989234
vt 0.579545 0.773923
vt 0.591507 0.773923
vt 0.591507 0.989234
vt 0.273923 0.752392
vt 0.273923 0.537081
vt 0.489234 0.537081
vt 0.489234 0.752392
vt 0.816387 0.226077
vt 0.816387 0.010766
vt 0.828349 0.010766
vt 0.828349 0.226077
vt 0.961124 0.226076
vt 0.961124 0.010766
vt 0.973086 0.010766
vt 0.973086 0.226076
vt 0.525717 0.773923
vt 0.525717 0.989234
vt 0.513756 0.989234
vt 0.513756 0.773923
vt 0.489234 0.989234
vt 0.273923 0.989234
vt 0.273923 0.773923
vt 0.489234 0.773923
vt 0.974282 0.752392
vt 0.974282 0.537081
vt 0.986243 0.537081
vt 0.986243 0.752392
vt 0.538875 0.773923
vt 0.538875 0.989234
vt 0.526914 0.989234
vt 0.526914 0.773923
vt 0.552033 0.773923
vt 0.552033 0.989234
vt 0.540071 0.989234
vt 0.540071 0.773923
vt 0.726076 0.752392
vt 0.510765 0.752392
vt 0.510765 0.537081
vt 0.726076 0.537081
vt 0.512559 0.773923
vt 0.512559 0.989234
vt 0.500598 0.989234
vt 0.500598 0.773923
vt 0.867823 0.010766
vt 0.867823 0.226077
vt 0.855861 0.226077
vt 0.855861 0.010766
vt 0.986244 0.010766
vt 0.986244 0.226076
vt 0.974282 0.226076
vt 0.974282 0.010766
vt 0.962918 0.537081
vt 0.962918 0.752392
vt 0.747607 0.752392
vt 0.747607 0.537081
vt 0.895335 0.226077
vt 0.895335 0.010766
vt 0.907296 0.010766
vt 0.907296 0.226077
vt 0.842703 0.226077
vt 0.842703 0.010766
vt 0.854665 0.010766
vt 0.854665 0.226077
vt 0.802033 0.010766
vt 0.802033 0.226077
vt 0.790071 0.226077
vt 0.790071 0.010766
vt 0.537081 0.489234
vt 0.537081 0.273923
vt 0.752392 0.273923
vt 0.752392 0.489234
vt 0.920454 0.010766
vt 0.920454 0.226077
vt 0.908493 0.226077
vt 0.908493 0.010766
vt 0.894139 0.010766
vt 0.894139 0.226077
vt 0.882177 0.226077
vt 0.882177 0.010766
vt 0.946770 0.010766
vt 0.946770 0.226077
vt 0.934808 0.226077
vt 0.934808 0.010766
vn 0.0000 0.0000 1.0000
vn 1.0000 0.0000 0.0000
vn 0.0000 0.0000 -1.0000
vn 0.0000 1.0000 0.0000
vn -1.0000 0.0000 0.0000
vn 0.0000 -1.0000 0.0000
usemtl Material.001
s off
f 10/1/1 3/2/1 38/3/1 39/4/1
f 13/5/1 2/6/1 41/7/1 42/8/1
f 5/9/1 7/10/1 34/11/1 35/12/1
f 3/2/1 4/13/1 37/14/1 38/3/1
f 7/10/1 8/15/1 33/16/1 34/11/1
f 28/17/1 25/18/1 54/19/1 56/20/1
f 8/21/2 7/22/2 31/23/2 19/24/2
f 7/22/2 5/25/2 32/26/2 31/23/2
f 6/27/2 8/21/2 19/24/2 27/28/2
f 5/25/2 6/27/2 27/28/2 32/26/2
f 4/29/3 3/30/3 29/31/3 24/32/3
f 3/30/3 10/33/3 31/34/3 29/31/3
f 9/35/3 4/29/3 24/32/3 19/36/3
f 10/33/3 9/35/3 19/36/3 31/34/3
f 2/37/4 13/38/4 24/39/4 26/40/4
f 13/38/4 16/41/4 19/42/4 24/39/4
f 16/41/4 12/43/4 27/44/4 19/42/4
f 12/43/4 2/37/4 26/40/4 27/44/4
f 1/45/5 14/46/5 29/47/5 30/48/5
f 17/49/5 1/45/5 30/48/5 26/50/5
f 18/51/5 17/49/5 26/50/5 24/52/5
f 14/46/5 18/51/5 24/52/5 29/47/5
f 22/53/1 23/54/1 26/55/1 30/56/1
f 20/57/1 11/58/1 32/59/1 27/60/1
f 11/58/1 22/53/1 30/56/1 32/59/1
f 23/54/1 20/57/1 27/60/1 26/55/1
f 21/61/6 25/62/6 30/63/6 29/64/6
f 15/65/6 21/61/6 29/64/6 31/66/6
f 28/67/6 15/65/6 31/66/6 32/68/6
f 25/62/6 28/67/6 32/68/6 30/63/6
f 48/69/1 45/70/1 57/71/1 60/72/1
f 37/73/6 40/74/6 72/75/6 69/76/6
f 33/77/6 36/78/6 68/79/6 65/80/6
f 51/81/6 50/82/6 62/83/6 63/84/6
f 53/85/1 55/86/1 79/87/1 77/88/1
f 44/89/5 43/90/5 75/91/5 76/92/5
f 14/93/1 1/94/1 46/95/1 45/96/1
f 8/15/1 6/97/1 36/98/1 33/16/1
f 16/99/1 13/5/1 42/8/1 43/100/1
f 23/101/1 22/102/1 49/103/1 50/104/1
f 4/13/1 9/105/1 40/106/1 37/14/1
f 1/94/1 17/107/1 47/108/1 46/95/1
f 25/18/1 21/109/1 53/110/1 54/19/1
f 6/97/1 5/9/1 35/12/1 36/98/1
f 12/111/1 16/99/1 43/100/1 44/112/1
f 11/113/1 20/114/1 51/115/1 52/116/1
f 9/105/1 10/1/1 39/4/1 40/106/1
f 17/107/1 18/117/1 48/118/1 47/108/1
f 21/109/1 15/119/1 55/120/1 53/110/1
f 2/6/1 12/111/1 44/112/1 41/7/1
f 22/102/1 11/113/1 52/116/1 49/103/1
f 18/117/1 14/93/1 45/96/1 48/118/1
f 15/119/1 28/17/1 56/20/1 55/120/1
f 20/114/1 23/101/1 50/104/1 51/115/1
f 58/121/5 59/122/5 60/123/5 57/124/5
f 46/125/3 47/126/3 59/127/3 58/128/3
f 47/129/6 48/130/6 60/131/6 59/132/6
f 45/133/4 46/134/4 58/135/4 57/136/4
f 64/137/1 63/138/1 62/139/1 61/140/1
f 52/141/5 51/142/5 63/143/5 64/144/5
f 49/145/4 52/146/4 64/147/4 61/148/4
f 50/149/2 49/150/2 61/151/2 62/152/2
f 66/153/2 65/154/2 68/155/2 67/156/2
f 34/157/1 33/158/1 65/159/1 66/160/1
f 36/161/3 35/162/3 67/163/3 68/164/3
f 35/165/4 34/166/4 66/167/4 67/168/4
f 70/169/3 69/170/3 72/171/3 71/172/3
f 38/173/2 37/174/2 69/175/2 70/176/2
f 40/177/5 39/178/5 71/179/5 72/180/5
f 39/181/4 38/182/4 70/183/4 71/184/4
f 75/185/4 74/186/4 73/187/4 76/188/4
f 42/189/2 41/190/2 73/191/2 74/192/2
f 41/193/3 44/194/3 76/195/3 73/196/3
f 43/197/1 42/198/1 74/199/1 75/200/1
f 77/201/6 79/202/6 80/203/6 78/204/6
f 55/205/5 56/206/5 80/207/5 79/208/5
f 54/209/2 53/210/2 77/211/2 78/212/2
f 56/213/3 54/214/3 78/215/3 80/216/3
