# Blender v2.81 (sub 16) OBJ File: ''
# www.blender.org
mtllib Rock1.mtl
o Rock_Cube.001
v -0.012671 0.127163 0.923320
v 1.000000 -1.000000 -1.000000
v -0.150187 0.969111 0.562111
v 1.003228 -0.993532 0.995905
v 0.065145 -1.207806 1.163240
v -1.000000 -1.000000 -1.000000
v -0.006477 -1.150066 -0.998867
v -0.950354 -1.041740 1.015287
v 0.577168 0.765942 -0.319148
v 0.844553 0.160632 -0.447087
v 0.324652 1.139039 0.396787
v 0.668882 0.357486 0.704500
v -0.485017 0.837868 -0.427781
v -1.039708 0.399198 -0.585090
v -0.625601 0.976787 0.433725
v -0.885228 0.498606 0.683746
v 0.055977 1.051421 -0.385303
v 0.044683 0.580214 -0.814094
v -1.579348 -1.027934 0.006138
v 0.985847 -1.131202 -0.023128
v 0.450910 0.952490 0.038820
v 0.907432 0.248015 0.133903
v -0.555309 0.907328 0.002972
v -0.996629 0.555302 -0.062396
v -0.047105 1.373642 0.088404
v 0.002454 -1.187727 0.011933
vt 0.375000 0.875000
vt 0.572540 0.875000
vt 0.572540 1.000000
vt 0.375000 1.000000
vt 0.375000 0.125000
vt 0.572540 0.125000
vt 0.572540 0.250000
vt 0.375000 0.250000
vt 0.572540 0.375000
vt 0.375000 0.375000
vt 0.250000 0.625000
vt 0.375000 0.625000
vt 0.375000 0.750000
vt 0.250000 0.750000
vt 0.750000 0.625000
vt 0.822540 0.625000
vt 0.822540 0.697540
vt 0.750000 0.697540
vt 0.572540 0.625000
vt 0.572540 0.750000
vt 0.875000 0.750000
vt 0.750000 0.750000
vt 0.677460 0.625000
vt 0.677460 0.697540
vt 0.822540 0.552460
vt 0.875000 0.500000
vt 0.875000 0.625000
vt 0.750000 0.552460
vt 0.677460 0.552460
vt 0.625000 0.500000
vt 0.750000 0.500000
vt 0.572540 0.500000
vt 0.375000 0.500000
vt 0.625000 0.750000
vt 0.125000 0.625000
vt 0.125000 0.750000
vt 0.125000 0.500000
vt 0.250000 0.500000
vt 0.375000 0.000000
vt 0.572540 0.000000
vn -0.1445 0.1923 0.9706
vn -0.9178 0.2065 -0.3392
vn -0.1098 0.1874 -0.9761
vn 0.1444 -0.9883 0.0482
vn -0.4521 0.8612 0.2324
vn 0.9816 0.1539 0.1126
vn -0.1247 0.4264 0.8959
vn 0.8469 0.5031 0.1723
vn -0.5805 0.7885 -0.2031
vn 0.4962 0.4890 -0.7174
vn 0.2278 0.2485 -0.9415
vn -0.2372 0.6261 -0.7428
vn 0.1541 0.4152 0.8966
vn 0.3024 0.8983 0.3188
vn -0.1259 -0.9917 0.0247
vn 0.1699 0.2163 0.9614
vn -0.1190 -0.9907 -0.0659
vn 0.5425 0.7749 -0.3244
vn -0.7618 0.6475 0.0196
vn 0.8714 0.4837 -0.0823
vn 0.9946 0.0995 -0.0283
vn -0.4549 0.7821 -0.4259
vn 0.1014 -0.9913 -0.0839
vn -0.8923 0.2345 0.3858
usemtl Material.001
s 1
f 5/1/1 1/2/1 16/3/1 8/4/1
f 19/5/2 24/6/2 14/7/2 6/8/2
f 6/8/3 14/7/3 18/9/3 7/10/3
f 26/11/4 20/12/4 4/13/4 5/14/4
f 25/15/5 23/16/5 15/17/5 3/18/5
f 20/12/6 22/19/6 12/20/6 4/13/6
f 3/18/7 15/17/7 16/21/7 1/22/7
f 21/23/8 11/24/8 12/20/8 22/19/8
f 23/16/9 13/25/9 14/26/9 24/27/9
f 17/28/10 9/29/10 10/30/10 18/31/10
f 7/10/11 18/9/11 10/32/11 2/33/11
f 13/25/12 17/28/12 18/31/12 14/26/12
f 11/24/13 3/18/13 1/22/13 12/34/13
f 21/23/14 25/15/14 3/18/14 11/24/14
f 19/35/15 26/11/15 5/14/15 8/36/15
f 4/13/16 12/20/16 1/2/16 5/1/16
f 6/37/17 7/38/17 26/11/17 19/35/17
f 9/29/18 17/28/18 25/15/18 21/23/18
f 15/17/19 23/16/19 24/27/19 16/21/19
f 9/29/20 21/23/20 22/19/20 10/32/20
f 2/33/21 10/32/21 22/19/21 20/12/21
f 17/28/22 13/25/22 23/16/22 25/15/22
f 7/38/23 2/33/23 20/12/23 26/11/23
f 8/39/24 16/40/24 24/6/24 19/5/24
