# Blender v2.81 (sub 16) OBJ File: ''
# www.blender.org
mtllib Bookshelf.mtl
o Bookshelf_Plane
v -1.000000 -1.000000 -0.000000
v 1.000000 -1.000000 -0.000000
v -1.000000 1.000000 0.000000
v 1.000000 1.000000 0.000000
v -1.000000 0.880082 0.000000
v -1.000000 0.428571 0.000000
v -1.000000 0.142857 0.000000
v -1.000000 -0.142857 -0.000000
v -1.000000 -0.428571 -0.000000
v -1.000000 -0.911175 -0.000000
v 1.000000 -0.911175 -0.000000
v 1.000000 -0.428571 -0.000000
v 1.000000 -0.142857 -0.000000
v 1.000000 0.142857 0.000000
v 1.000000 0.428571 0.000000
v 1.000000 0.880082 0.000000
v -0.911769 -1.000000 -0.000000
v -0.853079 -1.000000 -0.000000
v 0.853079 -1.000000 -0.000000
v 0.911769 -1.000000 -0.000000
v 0.911769 1.000000 0.000000
v 0.853079 1.000000 0.000000
v -0.853079 1.000000 0.000000
v -0.911769 1.000000 0.000000
v 0.911769 -0.911175 -0.000000
v 0.853079 -0.911175 -0.000000
v -0.853079 -0.911175 -0.000000
v -0.911769 -0.911175 -0.000000
v 0.911769 -0.489552 -0.000000
v 0.853079 -0.489552 -0.000000
v -0.853079 -0.489552 -0.000000
v -0.911769 -0.489552 -0.000000
v 0.911769 -0.048453 -0.000000
v 0.853079 -0.048453 -0.000000
v -0.853079 -0.048453 -0.000000
v -0.911769 -0.048453 -0.000000
v 0.911769 0.048453 0.000000
v 0.853079 0.048453 0.000000
v -0.853079 0.048453 0.000000
v -0.911769 0.048453 0.000000
v 0.911769 0.494521 0.000000
v 0.853079 0.494521 0.000000
v -0.853079 0.494521 0.000000
v -0.911769 0.494521 0.000000
v 0.911769 0.880082 0.000000
v 0.853079 0.880082 0.000000
v -0.853079 0.880082 0.000000
v -0.911769 0.880082 0.000000
v -1.000000 0.654327 0.000000
v 1.000000 0.654327 0.000000
v -0.911769 0.588377 0.000000
v -0.853079 0.588377 0.000000
v 0.853079 0.588377 0.000000
v 0.911769 0.588377 0.000000
v -1.000000 -0.669873 -0.000000
v 1.000000 -0.669873 -0.000000
v -0.911769 -0.608893 -0.000000
v -0.853079 -0.608893 -0.000000
v 0.853079 -0.608893 -0.000000
v 0.911769 -0.608893 -0.000000
v -1.000000 -0.911175 0.476879
v -1.000000 -1.000000 0.476879
v 0.911769 -1.000000 0.476879
v 1.000000 -1.000000 0.476879
v 1.000000 0.880082 0.476879
v 1.000000 1.000000 0.476879
v -0.911769 1.000000 0.476879
v -1.000000 1.000000 0.476879
v -1.000000 0.880082 0.476879
v -1.000000 0.654327 0.476879
v -1.000000 0.428571 0.476879
v -1.000000 0.142857 0.476879
v -1.000000 -0.142857 0.476879
v -1.000000 -0.428571 0.476879
v -1.000000 -0.669873 0.476879
v 1.000000 -0.911175 0.476879
v 1.000000 -0.669873 0.476879
v 1.000000 -0.428571 0.476879
v 1.000000 -0.142857 0.476879
v 1.000000 0.142857 0.476879
v 1.000000 0.428571 0.476879
v 1.000000 0.654327 0.476879
v -0.911769 -0.911175 0.476879
v -0.911769 -0.428571 0.476879
v -0.911769 -0.142857 0.476879
v -0.911769 0.142857 0.476879
v -0.911769 0.428571 0.476879
v -0.911769 0.880082 0.476879
v -0.911769 -1.000000 0.476879
v -0.853079 -1.000000 0.476879
v 0.853079 -1.000000 0.476879
v 0.911769 1.000000 0.476879
v 0.853079 1.000000 0.476879
v -0.853079 1.000000 0.476879
v 0.911769 -0.911175 0.476879
v 0.853079 -0.911175 0.476879
v -0.853079 -0.911175 0.476879
v 0.911769 -0.428571 0.476879
v 0.911769 -0.142857 0.476879
v 0.911769 0.142857 0.476879
v 0.911769 0.428571 0.476879
v 0.911769 0.880082 0.476879
v 0.853079 0.880082 0.476879
v -0.853079 0.880082 0.476879
v -0.911769 0.654327 0.476879
v 0.911769 0.654327 0.476879
v -0.911769 -0.669873 0.476879
v 0.911769 -0.669873 0.476879
v 0.911769 -0.489552 0.426577
v 0.853079 -0.489552 0.426577
v -0.853079 -0.489552 0.426577
v -0.911769 -0.489552 0.426577
v 0.911769 -0.048453 0.426577
v 0.853079 -0.048453 0.426577
v -0.853079 -0.048453 0.426577
v -0.911769 -0.048453 0.426577
v 0.911769 0.048453 0.426577
v 0.853079 0.048453 0.426577
v -0.853079 0.048453 0.426577
v -0.911769 0.048453 0.426577
v 0.911769 0.494521 0.426577
v 0.853079 0.494521 0.426577
v -0.853079 0.494521 0.426577
v -0.911769 0.494521 0.426577
v -0.911769 -0.608893 0.426577
v -0.853079 -0.608893 0.426577
v 0.853079 -0.608893 0.426577
v 0.911769 -0.608893 0.426577
v -0.911769 0.588377 0.426577
v -0.853079 0.588377 0.426577
v 0.853079 0.588377 0.426577
v 0.911769 0.588377 0.426577
vt 0.275791 0.793550
vt 0.275791 0.820497
vt 0.187538 0.834266
vt 0.187538 0.779781
vt 0.090459 0.497723
vt 0.090459 0.882971
vt 0.002206 0.882971
vt 0.002206 0.497723
vt 0.757090 0.089342
vt 0.757090 0.140318
vt 0.668837 0.140318
vt 0.668837 0.089342
vt 0.280203 0.672069
vt 0.280203 0.571348
vt 0.368456 0.586239
vt 0.368456 0.650753
vt 0.090459 0.484471
vt 0.002206 0.484471
vt 0.275791 0.888752
vt 0.187538 0.888752
vt 0.757090 0.011290
vt 0.757090 0.038367
vt 0.668837 0.038367
vt 0.668837 0.011290
vt 0.280203 0.550155
vt 0.368456 0.535264
vt 0.926429 0.422046
vt 0.926429 0.408794
vt 0.980413 0.408794
vt 0.980413 0.422046
vt 0.926429 0.023546
vt 0.980413 0.023546
vt 0.926429 0.010294
vt 0.980413 0.010294
vt 0.275791 0.484289
vt 0.275791 0.550155
vt 0.187538 0.535264
vt 0.187538 0.484289
vt 0.372727 0.896223
vt 0.372727 0.882971
vt 0.455278 0.882971
vt 0.455278 0.896223
vt 0.372727 0.497723
vt 0.455278 0.497723
vt 0.372727 0.484471
vt 0.455278 0.484471
vt 0.571759 0.442965
vt 0.571759 0.462887
vt 0.483506 0.462887
vt 0.483506 0.442965
vt 0.664657 0.497723
vt 0.664657 0.882971
vt 0.585713 0.882971
vt 0.585713 0.497723
vt 0.913331 0.484471
vt 0.913331 0.497723
vt 0.834387 0.497723
vt 0.834387 0.484471
vt 0.923105 0.023546
vt 0.923105 0.408794
vt 0.844161 0.408794
vt 0.844161 0.023546
vt 0.280203 0.820497
vt 0.280203 0.793550
vt 0.368456 0.779781
vt 0.368456 0.834266
vt 0.541014 0.484471
vt 0.541014 0.497723
vt 0.459382 0.497723
vt 0.459382 0.484471
vt 0.541014 0.882971
vt 0.459382 0.882971
vt 0.541014 0.896223
vt 0.459382 0.896223
vt 0.576172 0.140318
vt 0.576172 0.089342
vt 0.664425 0.089342
vt 0.664425 0.140318
vt 0.231159 0.997592
vt 0.209073 0.997592
vt 0.209073 0.901272
vt 0.231159 0.901271
vt 0.664657 0.484471
vt 0.585713 0.484471
vt 0.250990 0.901271
vt 0.268924 0.901271
vt 0.268924 0.997592
vt 0.250990 0.997592
vt 0.571759 0.429712
vt 0.483506 0.429713
vt 0.576172 0.038367
vt 0.576172 0.011290
vt 0.664425 0.011290
vt 0.664425 0.038367
vt 0.275791 0.693951
vt 0.187538 0.715267
vt 0.571759 0.044465
vt 0.483506 0.044465
vt 0.280203 0.888752
vt 0.368456 0.888752
vt 0.390840 0.031212
vt 0.390840 0.011290
vt 0.479093 0.011290
vt 0.479093 0.031212
vt 0.287176 0.997592
vt 0.269807 0.997592
vt 0.269807 0.901271
vt 0.287176 0.901271
vt 0.923105 0.010294
vt 0.844161 0.010294
vt 0.668605 0.896223
vt 0.668605 0.882971
vt 0.747549 0.882971
vt 0.747549 0.896223
vt 0.576172 0.204832
vt 0.664425 0.204832
vt 0.280203 0.484289
vt 0.368456 0.484289
vt 0.916703 0.497723
vt 0.916703 0.484471
vt 0.972645 0.484471
vt 0.972645 0.497723
vt 0.916703 0.882971
vt 0.972645 0.882971
vt 0.916703 0.896223
vt 0.972645 0.896223
vt 0.571759 0.031212
vt 0.483506 0.031212
vt 0.576172 0.442831
vt 0.576172 0.388345
vt 0.664425 0.388345
vt 0.664425 0.442831
vt 0.357188 0.031212
vt 0.357188 0.011290
vt 0.379381 0.011290
vt 0.379381 0.031212
vt 0.009253 0.031213
vt 0.009253 0.011290
vt 0.025691 0.011290
vt 0.025691 0.031213
vt 0.070348 0.031212
vt 0.070348 0.011290
vt 0.115004 0.011290
vt 0.115004 0.031212
vt 0.167879 0.011290
vt 0.167879 0.031212
vt 0.220755 0.011290
vt 0.220755 0.031212
vt 0.273630 0.011290
vt 0.273630 0.031212
vt 0.315409 0.031212
vt 0.315409 0.011290
vt 0.315409 0.462887
vt 0.315409 0.442965
vt 0.357188 0.442965
vt 0.357188 0.462887
vt 0.220755 0.462887
vt 0.220755 0.442965
vt 0.273630 0.442965
vt 0.273630 0.462887
vt 0.167879 0.462887
vt 0.167879 0.442965
vt 0.115004 0.462887
vt 0.115004 0.442965
vt 0.070348 0.462887
vt 0.070348 0.442965
vt 0.009253 0.462887
vt 0.009253 0.442965
vt 0.025691 0.442965
vt 0.025691 0.462887
vt 0.009253 0.429712
vt 0.025691 0.429712
vt 0.009253 0.044465
vt 0.025691 0.044465
vt 0.379381 0.442965
vt 0.379381 0.462887
vt 0.357188 0.429712
vt 0.379381 0.429712
vt 0.357188 0.044465
vt 0.379381 0.044465
vt 0.757090 0.204832
vt 0.668837 0.204832
vt 0.090459 0.896223
vt 0.002206 0.896223
vt 0.275791 0.571348
vt 0.187538 0.586239
vt 0.757090 0.269345
vt 0.668837 0.269345
vt 0.275791 0.672069
vt 0.187538 0.650753
vt 0.757090 0.333859
vt 0.668837 0.333859
vt 0.280203 0.693951
vt 0.368456 0.715267
vt 0.390840 0.462887
vt 0.390840 0.442965
vt 0.479093 0.442965
vt 0.479093 0.462887
vt 0.757090 0.388345
vt 0.757090 0.442831
vt 0.668837 0.442831
vt 0.668837 0.388345
vt 0.390840 0.429712
vt 0.479093 0.429712
vt 0.576172 0.462887
vt 0.664425 0.462887
vt 0.390840 0.044465
vt 0.479093 0.044465
vt 0.094872 0.497723
vt 0.094872 0.484471
vt 0.183125 0.484471
vt 0.183125 0.497723
vt 0.576172 0.333859
vt 0.664425 0.333859
vt 0.094872 0.882971
vt 0.183125 0.882971
vt 0.576172 0.269345
vt 0.664425 0.269345
vt 0.571759 0.011290
vt 0.483506 0.011290
vt 0.094872 0.896223
vt 0.183125 0.896223
vt 0.757090 0.462887
vt 0.668837 0.462887
vt 0.974492 0.896223
vt 0.974492 0.882971
vt 0.992426 0.882971
vt 0.992426 0.896223
vt 0.974492 0.497723
vt 0.992425 0.497723
vt 0.974492 0.484471
vt 0.992425 0.484471
vt 0.543607 0.896223
vt 0.543607 0.882971
vt 0.565692 0.882971
vt 0.565692 0.896223
vt 0.543606 0.497723
vt 0.565692 0.497723
vt 0.543606 0.484471
vt 0.565692 0.484471
vt 0.982197 0.023546
vt 0.982197 0.010294
vt 0.999566 0.010294
vt 0.999566 0.023546
vt 0.982197 0.408794
vt 0.999566 0.408794
vt 0.982197 0.422046
vt 0.999566 0.422046
vt 0.923105 0.422046
vt 0.844161 0.422046
vt 0.913331 0.882971
vt 0.834387 0.882971
vt 0.664657 0.896223
vt 0.585713 0.896223
vt 0.913331 0.896223
vt 0.834387 0.896223
vt 0.761270 0.023546
vt 0.761270 0.010294
vt 0.840214 0.010294
vt 0.840214 0.023546
vt 0.305414 0.997592
vt 0.288044 0.997592
vt 0.288044 0.901271
vt 0.305414 0.901271
vt 0.751496 0.497723
vt 0.751496 0.484471
vt 0.830440 0.484471
vt 0.830440 0.497723
vt 0.668604 0.497723
vt 0.668604 0.484471
vt 0.747548 0.484471
vt 0.747548 0.497723
vt 0.250093 0.997592
vt 0.232159 0.997592
vt 0.232159 0.901271
vt 0.250093 0.901271
vt 0.761270 0.408794
vt 0.840214 0.408794
vt 0.207969 0.997592
vt 0.185884 0.997592
vt 0.185884 0.901272
vt 0.207969 0.901271
vt 0.751496 0.882971
vt 0.830440 0.882971
vt 0.761270 0.422046
vt 0.840214 0.422046
vt 0.751496 0.896223
vt 0.830440 0.896223
vn -1.0000 0.0000 0.0000
vn 0.0000 1.0000 0.0000
vn 1.0000 0.0000 0.0000
vn 0.0000 -0.0000 1.0000
vn 0.0000 -1.0000 0.0000
usemtl None
s off
f 29/1/1 60/2/1 108/3/1 98/4/1
f 26/5/2 27/6/2 97/7/2 96/8/2
f 49/9/1 6/10/1 71/11/1 70/12/1
f 40/13/3 44/14/3 87/15/3 86/16/3
f 25/17/2 26/5/2 96/8/2 95/18/2
f 60/2/1 25/19/1 95/20/1 108/3/1
f 3/21/1 5/22/1 69/23/1 68/24/1
f 44/14/3 51/25/3 105/26/3 87/15/3
f 51/27/4 52/28/4 47/29/4 48/30/4
f 52/28/4 53/31/4 46/32/4 47/29/4
f 53/31/4 54/33/4 45/34/4 46/32/4
f 45/35/1 54/36/1 106/37/1 102/38/1
f 40/39/4 39/40/4 43/41/4 44/42/4
f 39/40/4 38/43/4 42/44/4 43/41/4
f 38/43/4 37/45/4 41/46/4 42/44/4
f 24/47/2 3/48/2 68/49/2 67/50/2
f 38/51/2 39/52/2 119/53/2 118/54/2
f 54/55/2 53/56/2 131/57/2 132/58/2
f 30/59/2 31/60/2 111/61/2 110/62/2
f 57/63/3 32/64/3 84/65/3 107/66/3
f 32/67/4 31/68/4 35/69/4 36/70/4
f 31/68/4 30/71/4 34/72/4 35/69/4
f 30/71/4 29/73/4 33/74/4 34/72/4
f 15/75/3 50/76/3 82/77/3 81/78/3
f 60/79/3 29/80/3 109/81/3 128/82/3
f 37/83/2 38/51/2 118/54/2 117/84/2
f 33/85/3 37/86/3 117/87/3 113/88/3
f 23/89/2 24/47/2 67/50/2 94/90/2
f 16/91/3 4/92/3 66/93/3 65/94/3
f 33/95/1 29/1/1 98/4/1 99/96/1
f 50/76/3 16/91/3 65/94/3 82/77/3
f 5/22/1 49/9/1 70/12/1 69/23/1
f 22/97/2 23/89/2 94/90/2 93/98/2
f 28/99/3 57/63/3 107/66/3 83/100/3
f 20/101/5 2/102/5 64/103/5 63/104/5
f 41/105/3 54/106/3 132/107/3 121/108/3
f 29/109/2 30/59/2 110/62/2 109/110/2
f 57/111/5 58/112/5 126/113/5 125/114/5
f 14/115/3 15/75/3 81/78/3 80/116/3
f 51/25/3 48/117/3 88/118/3 105/26/3
f 26/119/4 25/120/4 60/121/4 59/122/4
f 27/123/4 26/119/4 59/122/4 58/124/4
f 28/125/4 27/123/4 58/124/4 57/126/4
f 21/127/2 22/97/2 93/98/2 92/128/2
f 11/129/3 56/130/3 77/131/3 76/132/3
f 102/133/4 65/134/4 66/135/4 92/136/4
f 63/137/4 64/138/4 76/139/4 95/140/4
f 108/141/4 77/142/4 78/143/4 98/144/4
f 98/144/4 78/143/4 79/145/4 99/146/4
f 99/146/4 79/145/4 80/147/4 100/148/4
f 100/148/4 80/147/4 81/149/4 101/150/4
f 106/151/4 82/152/4 65/134/4 102/133/4
f 70/153/4 105/154/4 88/155/4 69/156/4
f 72/157/4 86/158/4 87/159/4 71/160/4
f 73/161/4 85/162/4 86/158/4 72/157/4
f 74/163/4 84/164/4 85/162/4 73/161/4
f 75/165/4 107/166/4 84/164/4 74/163/4
f 62/167/4 89/168/4 83/169/4 61/170/4
f 89/168/4 90/171/4 97/172/4 83/169/4
f 90/171/4 91/173/4 96/174/4 97/172/4
f 91/173/4 63/137/4 95/140/4 96/174/4
f 69/156/4 88/155/4 67/175/4 68/176/4
f 88/155/4 104/177/4 94/178/4 67/175/4
f 104/177/4 103/179/4 93/180/4 94/178/4
f 103/179/4 102/133/4 92/136/4 93/180/4
f 71/160/4 87/159/4 105/154/4 70/153/4
f 101/150/4 81/149/4 82/152/4 106/151/4
f 61/170/4 83/169/4 107/166/4 75/165/4
f 95/140/4 76/139/4 77/142/4 108/141/4
f 6/10/1 7/181/1 72/182/1 71/11/1
f 27/6/2 28/183/2 83/184/2 97/7/2
f 54/36/1 41/185/1 101/186/1 106/37/1
f 7/181/1 8/187/1 73/188/1 72/182/1
f 41/185/1 37/189/1 100/190/1 101/186/1
f 8/187/1 9/191/1 74/192/1 73/188/1
f 36/193/3 40/13/3 86/16/3 85/194/3
f 1/195/5 17/196/5 89/197/5 62/198/5
f 55/199/1 10/200/1 61/201/1 75/202/1
f 17/196/5 18/203/5 90/204/5 89/197/5
f 2/205/3 11/129/3 76/132/3 64/206/3
f 18/203/5 19/207/5 91/208/5 90/204/5
f 46/209/5 45/210/5 102/211/5 103/212/5
f 56/130/3 12/213/3 78/214/3 77/131/3
f 37/189/1 33/95/1 99/96/1 100/190/1
f 19/207/5 20/101/5 63/104/5 91/208/5
f 47/215/5 46/209/5 103/212/5 104/216/5
f 12/213/3 13/217/3 79/218/3 78/214/3
f 32/64/3 36/193/3 85/194/3 84/65/3
f 9/191/1 55/199/1 75/202/1 74/192/1
f 4/219/2 21/127/2 92/128/2 66/220/2
f 48/221/5 47/215/5 104/216/5 88/222/5
f 13/217/3 14/115/3 80/116/3 79/218/3
f 10/200/1 1/223/1 62/224/1 61/201/1
f 116/225/4 115/226/4 119/227/4 120/228/4
f 115/226/4 114/229/4 118/230/4 119/227/4
f 114/229/4 113/231/4 117/232/4 118/230/4
f 125/233/4 126/234/4 111/235/4 112/236/4
f 126/234/4 127/237/4 110/238/4 111/235/4
f 127/237/4 128/239/4 109/240/4 110/238/4
f 122/241/4 121/242/4 132/243/4 131/244/4
f 123/245/4 122/241/4 131/244/4 130/246/4
f 124/247/4 123/245/4 130/246/4 129/248/4
f 31/60/2 32/249/2 112/250/2 111/61/2
f 53/56/2 52/251/2 130/252/2 131/57/2
f 39/52/2 40/253/2 120/254/2 119/53/2
f 52/251/2 51/255/2 129/256/2 130/252/2
f 34/257/5 33/258/5 113/259/5 114/260/5
f 51/261/1 44/262/1 124/263/1 129/264/1
f 42/265/5 41/266/5 121/267/5 122/268/5
f 59/269/5 60/270/5 128/271/5 127/272/5
f 40/273/1 36/274/1 116/275/1 120/276/1
f 35/277/5 34/257/5 114/260/5 115/278/5
f 32/279/1 57/280/1 125/281/1 112/282/1
f 43/283/5 42/265/5 122/268/5 123/284/5
f 58/112/5 59/269/5 127/272/5 126/113/5
f 36/285/5 35/277/5 115/278/5 116/286/5
f 44/287/5 43/283/5 123/284/5 124/288/5
