# Blender v2.81 (sub 16) OBJ File: ''
# www.blender.org
mtllib Fence.mtl
o Fence_Cube.001
v -0.406325 -1.851826 0.136220
v -0.406325 1.851826 0.136220
v -0.406325 -1.851826 0.021292
v -0.406325 1.851826 0.021292
v 0.406325 -1.851826 0.136220
v 0.406325 1.851826 0.136220
v 0.406325 -1.851826 0.021292
v 0.406325 1.851826 0.021292
v 0.593675 -1.851826 0.136220
v 0.593675 1.851826 0.136220
v 0.593675 -1.851826 0.021292
v 0.593675 1.851826 0.021292
v 1.406325 -1.851826 0.136220
v 1.406325 1.851826 0.136220
v 1.406325 -1.851826 0.021292
v 1.406325 1.851826 0.021292
v 1.593675 -1.851826 0.136220
v 1.593675 1.851826 0.136220
v 1.593675 -1.851826 0.021292
v 1.593675 1.851826 0.021292
v 2.406325 -1.851826 0.136220
v 2.406325 1.851826 0.136220
v 2.406325 -1.851826 0.021292
v 2.406325 1.851826 0.021292
v 2.593675 -1.851826 0.136220
v 2.593675 1.851826 0.136220
v 2.593675 -1.851826 0.021292
v 2.593675 1.851826 0.021292
v 3.406325 -1.851826 0.136220
v 3.406325 1.851826 0.136220
v 3.406325 -1.851826 0.021292
v 3.406325 1.851826 0.021292
v 3.593675 -1.851826 0.136220
v 3.593675 1.851826 0.136220
v 3.593675 -1.851826 0.021292
v 3.593675 1.851826 0.021292
v 4.406325 -1.851826 0.136220
v 4.406325 1.851826 0.136220
v 4.406325 -1.851826 0.021292
v 4.406325 1.851826 0.021292
v -0.709595 -2.147218 0.237721
v -0.709595 2.147218 0.237721
v -0.709595 -2.147218 -0.237721
v -0.709595 2.147218 -0.237721
v -0.234152 -2.147218 0.237721
v -0.234152 2.147218 0.237721
v -0.234152 -2.147218 -0.237721
v -0.234152 2.147218 -0.237721
v 4.290405 -2.147218 0.237721
v 4.290405 2.147218 0.237721
v 4.290405 -2.147218 -0.237721
v 4.290405 2.147218 -0.237721
v 4.765848 -2.147218 0.237721
v 4.765848 2.147218 0.237721
v 4.765848 -2.147218 -0.237721
v 4.765848 2.147218 -0.237721
v -0.508768 0.290126 -0.033440
v -0.508768 -0.290126 -0.033440
v -0.508768 0.290126 0.033440
v -0.508768 -0.290126 0.033440
v 4.508768 0.290126 -0.033440
v 4.508768 -0.290126 -0.033440
v 4.508768 0.290126 0.033440
v 4.508768 -0.290126 0.033440
v -0.508768 1.290126 -0.033440
v -0.508768 0.709874 -0.033440
v -0.508768 1.290126 0.033440
v -0.508768 0.709874 0.033440
v 4.508768 1.290126 -0.033440
v 4.508768 0.709874 -0.033440
v 4.508768 1.290126 0.033440
v 4.508768 0.709874 0.033440
v -0.508768 -0.709874 -0.033440
v -0.508768 -1.290126 -0.033440
v -0.508768 -0.709874 0.033440
v -0.508768 -1.290126 0.033440
v 4.508768 -0.709874 -0.033440
v 4.508768 -1.290126 -0.033440
v 4.508768 -0.709874 0.033440
v 4.508768 -1.290126 0.033440
vt 0.938150 0.830042
vt 0.938150 0.443976
vt 0.949709 0.443976
vt 0.949709 0.830042
vt 0.723356 0.405370
vt 0.723356 0.019303
vt 0.805091 0.019303
vt 0.805091 0.405370
vt 0.950865 0.830042
vt 0.950865 0.443976
vt 0.962425 0.443976
vt 0.962425 0.830042
vt 0.633448 0.405370
vt 0.633448 0.019303
vt 0.715183 0.019303
vt 0.715183 0.405370
vt 0.910322 0.781775
vt 0.910322 0.866485
vt 0.898763 0.866485
vt 0.898763 0.781775
vt 0.910322 0.688594
vt 0.910322 0.773304
vt 0.898763 0.773304
vt 0.898763 0.688594
vt 0.938150 0.405370
vt 0.938150 0.019303
vt 0.949709 0.019303
vt 0.949709 0.405370
vt 0.004087 0.830042
vt 0.004087 0.443976
vt 0.085822 0.443976
vt 0.085822 0.830042
vt 0.834031 0.594630
vt 0.834031 0.980697
vt 0.822471 0.980697
vt 0.822471 0.594630
vt 0.363722 0.405370
vt 0.363722 0.019303
vt 0.445457 0.019303
vt 0.445457 0.405370
vt 0.873332 0.866485
vt 0.873332 0.781775
vt 0.884891 0.781775
vt 0.884891 0.866485
vt 0.911478 0.773304
vt 0.911478 0.688594
vt 0.923037 0.688594
vt 0.923037 0.773304
vt 0.090768 0.830043
vt 0.090768 0.443976
vt 0.102327 0.443976
vt 0.102327 0.830043
vt 0.183904 0.405370
vt 0.183904 0.019303
vt 0.265639 0.019303
vt 0.265639 0.405370
vt 0.821315 0.594630
vt 0.821315 0.980697
vt 0.809756 0.980697
vt 0.809756 0.594630
vt 0.093996 0.405370
vt 0.093995 0.019303
vt 0.175731 0.019303
vt 0.175731 0.405370
vt 0.886047 0.773304
vt 0.886047 0.688594
vt 0.897607 0.688594
vt 0.897607 0.773304
vt 0.897607 0.781775
vt 0.897607 0.866485
vt 0.886047 0.866485
vt 0.886047 0.781775
vt 0.962425 0.019303
vt 0.962425 0.405370
vt 0.950865 0.405370
vt 0.950865 0.019303
vt 0.535365 0.019303
vt 0.535365 0.405370
vt 0.453630 0.405370
vt 0.453630 0.019303
vt 0.859461 0.594630
vt 0.859461 0.980697
vt 0.847902 0.980697
vt 0.847902 0.594630
vt 0.004087 0.405370
vt 0.004087 0.019303
vt 0.085822 0.019303
vt 0.085822 0.405370
vt 0.873332 0.773304
vt 0.873332 0.688594
vt 0.884891 0.688594
vt 0.884891 0.773304
vt 0.911478 0.866485
vt 0.911478 0.781775
vt 0.923037 0.781775
vt 0.923037 0.866485
vt 0.103483 0.830043
vt 0.103483 0.443976
vt 0.115042 0.443976
vt 0.115042 0.830043
vt 0.625274 0.019303
vt 0.625274 0.405370
vt 0.543539 0.405370
vt 0.543539 0.019303
vt 0.846746 0.594630
vt 0.846746 0.980697
vt 0.835186 0.980697
vt 0.835186 0.594630
vt 0.273813 0.405370
vt 0.273813 0.019303
vt 0.355548 0.019303
vt 0.355548 0.405370
vt 0.860617 0.773304
vt 0.860617 0.688594
vt 0.872176 0.688594
vt 0.872176 0.773304
vt 0.872176 0.781775
vt 0.872176 0.866486
vt 0.860617 0.866486
vt 0.860617 0.781775
vt 0.427401 0.894704
vt 0.427401 0.447055
vt 0.475220 0.447055
vt 0.475220 0.894704
vt 0.647046 0.894704
vt 0.647046 0.447055
vt 0.694865 0.447055
vt 0.694865 0.894704
vt 0.754186 0.447055
vt 0.754186 0.894704
vt 0.706366 0.894704
vt 0.706366 0.447055
vt 0.594444 0.894704
vt 0.594444 0.447055
vt 0.642264 0.447055
vt 0.642264 0.894704
vt 0.002391 0.901384
vt 0.002391 0.851824
vt 0.050210 0.851824
vt 0.050210 0.901384
vt 0.102812 0.851824
vt 0.102812 0.901384
vt 0.054992 0.901384
vt 0.054992 0.851824
vt 0.374799 0.894704
vt 0.374799 0.447055
vt 0.422619 0.447055
vt 0.422619 0.894704
vt 0.541843 0.894704
vt 0.541843 0.447055
vt 0.589662 0.447055
vt 0.589662 0.894704
vt 0.806787 0.447055
vt 0.806787 0.894704
vt 0.758968 0.894704
vt 0.758968 0.447055
vt 0.480002 0.894704
vt 0.480002 0.447055
vt 0.527821 0.447055
vt 0.527821 0.894704
vt 0.862430 0.681881
vt 0.862430 0.632321
vt 0.910249 0.632321
vt 0.910249 0.681881
vt 0.910249 0.577805
vt 0.910249 0.627365
vt 0.862430 0.627365
vt 0.862430 0.577805
vt 0.112266 0.852370
vt 0.112266 0.912855
vt 0.105539 0.912855
vt 0.105539 0.852370
vt 0.369490 0.973849
vt 0.311130 0.973849
vt 0.311129 0.450824
vt 0.369490 0.450824
vt 0.882573 0.934230
vt 0.882573 0.873745
vt 0.889300 0.873745
vt 0.889300 0.934230
vt 0.876293 0.026151
vt 0.934654 0.026151
vt 0.934654 0.549176
vt 0.876293 0.549176
vt 0.532389 0.973849
vt 0.532389 0.450824
vt 0.539116 0.450824
vt 0.539116 0.973849
vt 0.984865 0.026151
vt 0.984865 0.549176
vt 0.978138 0.549176
vt 0.978138 0.026151
vt 0.874501 0.873745
vt 0.874501 0.934230
vt 0.867775 0.934230
vt 0.867775 0.873745
vt 0.241096 0.973849
vt 0.182736 0.973849
vt 0.182735 0.450824
vt 0.241096 0.450824
vt 0.875174 0.934230
vt 0.875174 0.873745
vt 0.881901 0.873745
vt 0.881901 0.934230
vt 0.118538 0.450824
vt 0.176899 0.450824
vt 0.176899 0.973849
vt 0.118539 0.973849
vt 0.992937 0.549176
vt 0.992937 0.026151
vt 0.999664 0.026151
vt 0.999664 0.549176
vt 0.977465 0.026151
vt 0.977465 0.549176
vt 0.970738 0.549176
vt 0.970738 0.026151
vt 0.867102 0.873745
vt 0.867102 0.934230
vt 0.860375 0.934230
vt 0.860375 0.873745
vt 0.870457 0.549176
vt 0.812096 0.549176
vt 0.812096 0.026151
vt 0.870457 0.026151
vt 0.889973 0.934230
vt 0.889973 0.873745
vt 0.896699 0.873745
vt 0.896699 0.934230
vt 0.246932 0.450824
vt 0.305293 0.450824
vt 0.305293 0.973849
vt 0.246933 0.973849
vt 0.985537 0.549176
vt 0.985537 0.026151
vt 0.992264 0.026151
vt 0.992264 0.549176
vt 0.970066 0.026151
vt 0.970066 0.549176
vt 0.963339 0.549176
vt 0.963339 0.026151
vn -1.0000 0.0000 0.0000
vn 0.0000 0.0000 -1.0000
vn 1.0000 0.0000 0.0000
vn 0.0000 0.0000 1.0000
vn 0.0000 -1.0000 0.0000
vn 0.0000 1.0000 0.0000
usemtl Material.001
s off
f 1/1/1 2/2/1 4/3/1 3/4/1
f 3/5/2 4/6/2 8/7/2 7/8/2
f 7/9/3 8/10/3 6/11/3 5/12/3
f 5/13/4 6/14/4 2/15/4 1/16/4
f 3/17/5 7/18/5 5/19/5 1/20/5
f 8/21/6 4/22/6 2/23/6 6/24/6
f 9/25/1 10/26/1 12/27/1 11/28/1
f 11/29/2 12/30/2 16/31/2 15/32/2
f 15/33/3 16/34/3 14/35/3 13/36/3
f 13/37/4 14/38/4 10/39/4 9/40/4
f 11/41/5 15/42/5 13/43/5 9/44/5
f 16/45/6 12/46/6 10/47/6 14/48/6
f 17/49/1 18/50/1 20/51/1 19/52/1
f 19/53/2 20/54/2 24/55/2 23/56/2
f 23/57/3 24/58/3 22/59/3 21/60/3
f 21/61/4 22/62/4 18/63/4 17/64/4
f 19/65/5 23/66/5 21/67/5 17/68/5
f 24/69/6 20/70/6 18/71/6 22/72/6
f 25/73/1 26/74/1 28/75/1 27/76/1
f 27/77/2 28/78/2 32/79/2 31/80/2
f 31/81/3 32/82/3 30/83/3 29/84/3
f 29/85/4 30/86/4 26/87/4 25/88/4
f 27/89/5 31/90/5 29/91/5 25/92/5
f 32/93/6 28/94/6 26/95/6 30/96/6
f 33/97/1 34/98/1 36/99/1 35/100/1
f 35/101/2 36/102/2 40/103/2 39/104/2
f 39/105/3 40/106/3 38/107/3 37/108/3
f 37/109/4 38/110/4 34/111/4 33/112/4
f 35/113/5 39/114/5 37/115/5 33/116/5
f 40/117/6 36/118/6 34/119/6 38/120/6
f 41/121/1 42/122/1 44/123/1 43/124/1
f 43/125/2 44/126/2 48/127/2 47/128/2
f 47/129/3 48/130/3 46/131/3 45/132/3
f 45/133/4 46/134/4 42/135/4 41/136/4
f 43/137/5 47/138/5 45/139/5 41/140/5
f 48/141/6 44/142/6 42/143/6 46/144/6
f 49/145/1 50/146/1 52/147/1 51/148/1
f 51/149/2 52/150/2 56/151/2 55/152/2
f 55/153/3 56/154/3 54/155/3 53/156/3
f 53/157/4 54/158/4 50/159/4 49/160/4
f 51/161/5 55/162/5 53/163/5 49/164/5
f 56/165/6 52/166/6 50/167/6 54/168/6
f 57/169/1 58/170/1 60/171/1 59/172/1
f 59/173/4 60/174/4 64/175/4 63/176/4
f 63/177/3 64/178/3 62/179/3 61/180/3
f 61/181/2 62/182/2 58/183/2 57/184/2
f 59/185/6 63/186/6 61/187/6 57/188/6
f 64/189/5 60/190/5 58/191/5 62/192/5
f 65/193/1 66/194/1 68/195/1 67/196/1
f 67/197/4 68/198/4 72/199/4 71/200/4
f 71/201/3 72/202/3 70/203/3 69/204/3
f 69/205/2 70/206/2 66/207/2 65/208/2
f 67/209/6 71/210/6 69/211/6 65/212/6
f 72/213/5 68/214/5 66/215/5 70/216/5
f 73/217/1 74/218/1 76/219/1 75/220/1
f 75/221/4 76/222/4 80/223/4 79/224/4
f 79/225/3 80/226/3 78/227/3 77/228/3
f 77/229/2 78/230/2 74/231/2 73/232/2
f 75/233/6 79/234/6 77/235/6 73/236/6
f 80/237/5 76/238/5 74/239/5 78/240/5
