# Blender v2.81 (sub 16) OBJ File: ''
# www.blender.org
mtllib PillarTemp.mtl
o Plane
v -1.000000 0.000000 -0.333333
v -0.333333 1.000000 -0.333333
v -0.333333 0.000000 -1.000000
v -1.000000 0.000000 -1.000000
v 0.333333 -0.000000 1.000000
v 1.000000 -0.000000 1.000000
v 1.000000 -0.000000 0.333333
v 0.333333 1.000000 0.333333
v -1.000000 -0.000000 1.000000
v -0.333333 -0.000000 1.000000
v -0.333333 1.000000 0.333333
v -1.000000 -0.000000 0.333333
v 0.333333 1.000000 -0.333333
v 1.000000 0.000000 -0.333333
v 1.000000 0.000000 -1.000000
v 0.333333 0.000000 -1.000000
v -0.333333 0.290323 0.333333
v 0.333333 0.290323 0.333333
v 0.333333 0.290323 -0.333333
v -0.333333 0.290323 -0.333333
v -1.000000 -0.000000 0.333333
v -1.000000 -0.000000 1.000000
v -1.000000 0.000000 -0.333333
v -1.000000 0.000000 -1.000000
v -0.333333 0.000000 -1.000000
v 1.000000 0.000000 -1.000000
v 0.333333 0.000000 -1.000000
v 1.000000 0.000000 -0.333333
v 1.000000 -0.000000 0.333333
v 0.333333 -0.000000 1.000000
v 1.000000 -0.000000 1.000000
v -0.333333 -0.000000 1.000000
v 0.333333 -0.000000 2.000000
v 1.000000 -0.000000 2.000000
v -1.000000 -0.000000 2.000000
v -0.333333 -0.000000 2.000000
v -1.735686 -0.000000 1.264314
v -1.735686 -0.000000 1.735686
v -1.735686 1.000000 1.735686
v -1.735686 1.000000 1.264314
v 1.735686 -0.000000 0.069020
v 1.735686 1.000000 0.069020
v 1.264314 1.000000 0.069020
v 1.264314 -0.000000 0.069020
v -0.333333 0.000000 -2.000000
v -1.000000 0.000000 -2.000000
v 1.000000 0.000000 -2.000000
v 0.333333 0.000000 -2.000000
v 1.264314 1.000000 -0.069020
v 1.264314 0.000000 -0.069020
v 1.735686 0.000000 -1.735686
v 1.264314 0.000000 -1.735686
v 1.264314 1.000000 -1.735686
v 1.735686 1.000000 -1.735686
v -2.000000 -0.000000 0.333333
v -2.000000 -0.000000 1.000000
v 1.264314 0.000000 -1.264314
v 1.735686 0.000000 -1.264314
v 1.735686 1.000000 -1.264314
v 1.264314 1.000000 -1.264314
v -2.000000 0.000000 -1.000000
v -2.000000 0.000000 -0.333333
v -1.264314 -0.000000 0.069020
v -1.264314 0.000000 -0.069020
v -1.264314 1.000000 -0.069020
v -1.264314 1.000000 0.069020
v 2.000000 -0.000000 1.000000
v 2.000000 -0.000000 0.333333
v 2.000000 0.000000 -0.333333
v 2.000000 0.000000 -1.000000
v -0.069020 -0.000000 1.264314
v 0.069020 -0.000000 1.264314
v -0.069020 0.000000 -1.264314
v 0.069020 0.000000 -1.264314
v 0.069020 -0.000000 1.735686
v -0.069020 -0.000000 1.735686
v 1.264314 -0.000000 1.735686
v 1.264314 -0.000000 1.264314
v -1.264314 -0.000000 1.264314
v -1.264314 -0.000000 1.735686
v 0.069020 0.000000 -1.735686
v -0.069020 0.000000 -1.735686
v -1.264314 0.000000 -1.735686
v -1.264314 0.000000 -1.264314
v -1.735686 -0.000000 0.069020
v -1.735686 0.000000 -0.069020
v -2.000000 -0.000000 2.000000
v -1.735686 0.000000 -1.264314
v -1.735686 0.000000 -1.735686
v -2.000000 0.000000 -2.000000
v 1.735686 0.000000 -0.069020
v 1.735686 -0.000000 1.264314
v 1.735686 -0.000000 1.735686
v 2.000000 -0.000000 2.000000
v 2.000000 0.000000 -2.000000
v 0.069020 1.000000 1.264314
v -0.069020 1.000000 1.264314
v -0.069020 1.000000 1.735686
v 0.069020 1.000000 1.735686
v 0.069020 1.000000 -1.264314
v 0.069020 1.000000 -1.735686
v -0.069020 1.000000 -1.735686
v -0.069020 1.000000 -1.264314
v -1.264314 1.000000 1.735686
v -1.264314 1.000000 1.264314
v -1.735686 1.000000 1.264314
v -1.735686 1.000000 1.735686
v -1.264314 1.000000 0.069020
v -1.264314 1.000000 -0.069020
v -1.735686 1.000000 -0.069020
v -1.735686 1.000000 0.069020
v -1.264314 1.000000 -1.264314
v -1.264314 1.000000 -1.735686
v -1.735686 1.000000 -1.735686
v -1.735686 1.000000 -1.264314
v 1.264314 1.000000 -1.735686
v 1.264314 1.000000 -1.264314
v 1.735686 1.000000 -1.264314
v 1.735686 1.000000 -1.735686
v 1.264314 1.000000 1.264314
v 1.264314 1.000000 1.735686
v 1.735686 1.000000 1.735686
v 1.735686 1.000000 1.264314
v 1.264314 1.000000 0.069020
v 1.735686 1.000000 0.069020
v 1.735686 1.000000 -0.069020
v 1.264314 1.000000 -0.069020
v -0.069020 1.000000 1.264314
v 0.069020 1.000000 1.264314
v 1.264314 1.000000 1.264314
v 1.735686 1.000000 1.264314
v -1.735686 1.000000 -1.264314
v -1.735686 1.000000 -1.735686
v 0.069020 1.000000 -1.264314
v -0.069020 1.000000 -1.264314
v 1.735686 1.000000 -0.069020
v -1.264314 1.000000 1.735686
v -1.264314 1.000000 1.264314
v 1.264314 1.000000 1.735686
v -1.735686 1.000000 0.069020
v 1.735686 1.000000 1.735686
v 0.069020 1.000000 1.735686
v -1.735686 1.000000 -0.069020
v -0.069020 1.000000 -1.735686
v 0.069020 1.000000 -1.735686
v -0.069020 1.000000 1.735686
v -1.264314 1.000000 -1.264314
v -1.264314 1.000000 -1.735686
v -2.000000 1.000000 2.000000
v -1.000000 1.000000 2.000000
v 2.000000 1.000000 -1.000000
v 2.000000 1.000000 -2.000000
v 1.000000 1.000000 -2.000000
v 0.333333 1.000000 -2.000000
v -2.000000 1.000000 -1.000000
v -2.000000 1.000000 -0.333333
v -0.333333 1.000000 -2.000000
v -1.000000 1.000000 -2.000000
v -0.333333 1.000000 2.000000
v 0.333333 1.000000 2.000000
v -2.000000 1.000000 0.333333
v -2.000000 1.000000 1.000000
v 1.000000 1.000000 2.000000
v 2.000000 1.000000 1.000000
v 2.000000 1.000000 0.333333
v -2.000000 1.000000 -2.000000
v 2.000000 1.000000 -0.333333
v 2.000000 1.000000 2.000000
vt 0.913474 0.000413
vt 0.999570 0.000413
vt 0.999570 0.082921
vt 0.913474 0.082921
vt 0.216961 0.943623
vt 0.130865 0.943623
vt 0.130865 0.861115
vt 0.216961 0.861115
vt 0.217822 0.861115
vt 0.303917 0.861115
vt 0.303917 0.943623
vt 0.217822 0.943623
vt 0.910556 0.582921
vt 0.910556 0.500413
vt 0.996651 0.500413
vt 0.996651 0.582921
vt 0.192531 0.617851
vt 0.253410 0.559509
vt 0.314288 0.617851
vt 0.253410 0.676193
vt 0.786904 0.500744
vt 0.786904 0.649488
vt 0.736066 0.573824
vt 0.735558 0.500744
vt 0.735558 0.649488
vt 0.684719 0.576408
vt 0.684211 0.500744
vt 0.684211 0.649488
vt 0.633373 0.573824
vt 0.581517 0.500744
vt 0.581517 0.649488
vt 0.530679 0.576408
vt 0.632864 0.500744
vt 0.632864 0.649488
vt 0.582026 0.573824
vt 0.530171 0.649488
vt 0.479332 0.576408
vt 0.530171 0.500744
vt 0.478824 0.500744
vt 0.478824 0.649488
vt 0.427986 0.573824
vt 0.427477 0.649488
vt 0.376639 0.576408
vt 0.427477 0.500744
vt 0.192531 0.734535
vt 0.131652 0.676193
vt 0.314289 0.734535
vt 0.375167 0.676193
vt 0.375167 0.559509
vt 0.314289 0.501167
vt 0.131652 0.559509
vt 0.192531 0.501167
vt 0.000000 0.000000
vt 0.000000 0.000000
vt 0.000000 0.000000
vt 0.000000 0.000000
vt 0.000000 0.000000
vt 0.000000 0.000000
vt 0.000000 0.000000
vt 0.000000 0.000000
vt 0.000000 0.000000
vt 0.000000 0.000000
vt 0.000000 0.000000
vt 0.000000 0.000000
vt 0.000000 0.000000
vt 0.000000 0.000000
vt 0.000000 0.000000
vt 0.000000 0.000000
vt 0.000000 0.000000
vt 0.000000 0.000000
vt 0.000000 0.000000
vt 0.000000 0.000000
vt 0.000000 0.000000
vt 0.000000 0.000000
vt 0.000000 0.000000
vt 0.000000 0.000000
vt 0.131726 0.126238
vt 0.131726 0.208746
vt 0.002583 0.208746
vt 0.002583 0.126238
vt 0.131726 0.291254
vt 0.131726 0.373762
vt 0.002583 0.373762
vt 0.002583 0.291254
vt 0.581467 0.774613
vt 0.520593 0.774613
vt 0.520593 0.650850
vt 0.581467 0.650850
vt 0.765917 0.775850
vt 0.765917 0.899613
vt 0.705043 0.899613
vt 0.705043 0.775850
vt 0.390013 0.373762
vt 0.390013 0.291254
vt 0.519156 0.291254
vt 0.519156 0.373762
vt 0.390013 0.208746
vt 0.390013 0.126238
vt 0.519156 0.126238
vt 0.519156 0.208746
vt 0.499441 0.899613
vt 0.499441 0.775850
vt 0.517267 0.775850
vt 0.517268 0.899613
vt 0.581467 0.899613
vt 0.520593 0.899613
vt 0.520593 0.775850
vt 0.581467 0.775850
vt 0.217822 0.373762
vt 0.217822 0.497525
vt 0.131726 0.497525
vt 0.950367 0.899613
vt 0.889492 0.899613
vt 0.889492 0.775850
vt 0.950367 0.775850
vt 0.303917 0.373762
vt 0.390013 0.497525
vt 0.303917 0.497525
vt 0.499441 0.650850
vt 0.517267 0.650850
vt 0.517268 0.774613
vt 0.499441 0.774613
vt 0.217822 0.126238
vt 0.131726 0.002475
vt 0.217822 0.002475
vt 0.303917 0.126238
vt 0.303917 0.002475
vt 0.390013 0.002475
vt 0.191614 0.860083
vt 0.130739 0.860083
vt 0.130739 0.736321
vt 0.191614 0.736321
vt 0.848337 0.624381
vt 0.787463 0.624381
vt 0.787463 0.500619
vt 0.848337 0.500619
vt 0.269783 0.406475
vt 0.251956 0.406475
vt 0.269783 0.093526
vt 0.251956 0.093526
vt 0.097592 0.258542
vt 0.097592 0.241458
vt 0.424147 0.258542
vt 0.424147 0.241458
vt 0.036717 0.241458
vt 0.036717 0.258542
vt 0.036717 0.093526
vt 0.097592 0.093526
vt 0.097592 0.406475
vt 0.036717 0.406475
vt 0.485022 0.241458
vt 0.485022 0.258542
vt 0.485022 0.406475
vt 0.424147 0.406475
vt 0.424147 0.093525
vt 0.485022 0.093525
vt 0.251956 0.464813
vt 0.269783 0.464813
vt 0.036717 0.464813
vt 0.097592 0.464813
vt 0.002583 0.497525
vt 0.424147 0.464813
vt 0.485022 0.464813
vt 0.519156 0.497525
vt 0.251956 0.035187
vt 0.269783 0.035187
vt 0.097592 0.035187
vt 0.036717 0.035187
vt 0.002583 0.002475
vt 0.485022 0.035187
vt 0.424147 0.035187
vt 0.519156 0.002475
vt 0.968587 0.892783
vt 0.950760 0.892783
vt 0.950760 0.834445
vt 0.968587 0.834445
vt 0.968587 0.775523
vt 0.968587 0.833861
vt 0.950760 0.833861
vt 0.950760 0.775523
vt 0.365527 0.860994
vt 0.365527 0.919332
vt 0.304652 0.919332
vt 0.304652 0.860994
vt 0.949143 0.333625
vt 0.966970 0.333625
vt 0.966970 0.391963
vt 0.949143 0.391963
vt 0.971304 0.583625
vt 0.971304 0.641963
vt 0.910429 0.641963
vt 0.910429 0.583625
vt 0.913348 0.200885
vt 0.913348 0.142547
vt 0.974222 0.142547
vt 0.974222 0.200885
vt 0.913348 0.141963
vt 0.913348 0.083625
vt 0.974222 0.083625
vt 0.974222 0.141963
vt 0.949143 0.450885
vt 0.949143 0.392546
vt 0.966970 0.392546
vt 0.966970 0.450885
vt 0.930960 0.325557
vt 0.913133 0.325557
vt 0.913133 0.201795
vt 0.930960 0.201795
vt 0.766526 0.775850
vt 0.827400 0.775850
vt 0.827400 0.899613
vt 0.766526 0.899613
vt 0.704434 0.774613
vt 0.643559 0.774613
vt 0.643559 0.650850
vt 0.704434 0.650850
vt 0.948965 0.201795
vt 0.948965 0.325557
vt 0.931138 0.325557
vt 0.931138 0.201795
vt 0.437564 0.775850
vt 0.437564 0.899612
vt 0.376689 0.899613
vt 0.376689 0.775850
vt 0.253706 0.736321
vt 0.314580 0.736321
vt 0.314580 0.860083
vt 0.253706 0.860083
vt 0.888884 0.899613
vt 0.828009 0.899613
vt 0.828009 0.775850
vt 0.888884 0.775850
vt 0.642951 0.774613
vt 0.582076 0.774613
vt 0.582076 0.650850
vt 0.642951 0.650850
vt 0.950367 0.774613
vt 0.889492 0.774613
vt 0.889492 0.650850
vt 0.950367 0.650850
vt 0.315189 0.736321
vt 0.376064 0.736321
vt 0.376064 0.860083
vt 0.315189 0.860083
vt 0.828009 0.650850
vt 0.888884 0.650850
vt 0.888884 0.774613
vt 0.828009 0.774613
vt 0.704434 0.899613
vt 0.643559 0.899613
vt 0.643559 0.775850
vt 0.704434 0.775850
vt 0.913133 0.450557
vt 0.913133 0.326795
vt 0.930960 0.326795
vt 0.930960 0.450557
vt 0.499047 0.774613
vt 0.438172 0.774613
vt 0.438172 0.650850
vt 0.499047 0.650850
vt 0.705043 0.650850
vt 0.765917 0.650850
vt 0.765917 0.774613
vt 0.705043 0.774613
vt 0.499047 0.899613
vt 0.438172 0.899613
vt 0.438172 0.775850
vt 0.499047 0.775850
vt 0.642951 0.899613
vt 0.582076 0.899613
vt 0.582076 0.775850
vt 0.642951 0.775850
vt 0.968587 0.650850
vt 0.968587 0.774613
vt 0.950760 0.774613
vt 0.950760 0.650850
vt 0.827400 0.650850
vt 0.827400 0.774613
vt 0.766526 0.774613
vt 0.766526 0.650850
vt 0.376689 0.774613
vt 0.376689 0.650850
vt 0.437564 0.650850
vt 0.437564 0.774613
vt 0.931138 0.326795
vt 0.948965 0.326795
vt 0.948965 0.450557
vt 0.931138 0.450557
vt 0.966970 0.325558
vt 0.949143 0.325558
vt 0.949143 0.201795
vt 0.966970 0.201795
vt 0.253097 0.860083
vt 0.192222 0.860083
vt 0.192222 0.736321
vt 0.253097 0.736321
vt 0.848946 0.500619
vt 0.909821 0.500619
vt 0.909821 0.624381
vt 0.848946 0.624381
vt 0.000000 0.000000
vt 0.000000 0.000000
vt 0.000000 0.000000
vt 0.000000 0.000000
vt 0.000000 0.000000
vt 0.000000 0.000000
vt 0.000000 0.000000
vt 0.000000 0.000000
vt 0.000000 0.000000
vt 0.000000 0.000000
vt 0.000000 0.000000
vt 0.000000 0.000000
vt 0.000000 0.000000
vt 0.000000 0.000000
vt 0.000000 0.000000
vt 0.000000 0.000000
vt 0.000000 0.000000
vt 0.000000 0.000000
vt 0.000000 0.000000
vt 0.000000 0.000000
vt 0.000000 0.000000
vt 0.000000 0.000000
vt 0.000000 0.000000
vt 0.000000 0.000000
vt 0.000000 0.000000
vt 0.000000 0.000000
vt 0.000000 0.000000
vt 0.000000 0.000000
vt 0.000000 0.000000
vt 0.000000 0.000000
vt 0.000000 0.000000
vt 0.000000 0.000000
vt 0.000000 0.000000
vt 0.000000 0.000000
vt 0.000000 0.000000
vt 0.000000 0.000000
vt 0.000000 0.000000
vt 0.000000 0.000000
vt 0.000000 0.000000
vt 0.000000 0.000000
vt 0.000000 0.000000
vt 0.000000 0.000000
vt 0.000000 0.000000
vt 0.000000 0.000000
vt 0.000000 0.000000
vt 0.000000 0.000000
vt 0.000000 0.000000
vt 0.000000 0.000000
vt 0.000000 0.000000
vt 0.000000 0.000000
vt 0.000000 0.000000
vt 0.000000 0.000000
vt 0.000000 0.000000
vt 0.000000 0.000000
vt 0.000000 0.000000
vt 0.000000 0.000000
vt 0.000000 0.000000
vt 0.000000 0.000000
vt 0.000000 0.000000
vt 0.000000 0.000000
vt 0.000000 0.000000
vt 0.000000 0.000000
vt 0.000000 0.000000
vt 0.000000 0.000000
vt 0.129789 0.873762
vt 0.129789 0.997525
vt 0.000646 0.997525
vt 0.000646 0.873762
vt 0.522385 0.497525
vt 0.522385 0.373762
vt 0.651528 0.373762
vt 0.651528 0.497525
vt 0.912398 0.291254
vt 0.912398 0.373762
vt 0.783254 0.373762
vt 0.783254 0.291254
vt 0.652820 0.208746
vt 0.652820 0.126238
vt 0.781963 0.126238
vt 0.781963 0.208746
vt 0.912398 0.497525
vt 0.783254 0.497525
vt 0.912398 0.126238
vt 0.912398 0.208746
vt 0.783254 0.208746
vt 0.783254 0.126238
vt 0.129789 0.708746
vt 0.129789 0.791254
vt 0.000646 0.791254
vt 0.000646 0.708746
vt 0.652820 0.373762
vt 0.652820 0.291254
vt 0.781963 0.291254
vt 0.781963 0.373762
vt 0.129789 0.626238
vt 0.000646 0.626238
vt 0.522385 0.208746
vt 0.522385 0.126238
vt 0.651528 0.126238
vt 0.651528 0.208746
vt 0.912398 0.002475
vt 0.783254 0.002475
vt 0.652820 0.497525
vt 0.781963 0.497525
vt 0.522385 0.291254
vt 0.651528 0.291254
vt 0.652820 0.002475
vt 0.781963 0.002475
vt 0.129789 0.502475
vt 0.000646 0.502475
vt 0.522385 0.002475
vt 0.651528 0.002475
vn -0.5145 0.6860 -0.5145
vn 0.5145 0.6860 0.5145
vn -0.5145 0.6860 0.5145
vn 0.5145 0.6860 -0.5145
vn 0.0000 1.0000 0.0000
vn -0.0000 0.0000 1.0000
vn 0.0000 -0.0000 -1.0000
vn 1.0000 -0.0000 0.0000
vn -1.0000 -0.0000 0.0000
vn 0.3752 0.8615 -0.3422
vn 0.2480 0.5695 -0.7836
vn 0.2480 0.5695 0.7836
vn 0.3752 0.8615 0.3422
vn -0.3422 0.8615 -0.3752
vn -0.7836 0.5695 -0.2480
vn 0.7836 0.5695 -0.2480
vn 0.3422 0.8615 -0.3752
vn -0.3993 0.9168 0.0000
vn 0.0000 0.9168 0.3993
vn 0.0000 0.0000 0.0000
usemtl None
s 1
f 1/1/1 2/2/1 3/3/1 4/4/1
f 5/5/2 6/6/2 7/7/2 8/8/2
f 9/9/3 10/10/3 11/11/3 12/12/3
f 13/13/4 14/14/4 15/15/4 16/16/4
f 17/17/5 18/18/5 19/19/5 20/20/5
f 2/21/6 1/22/6 20/23/6
f 12/24/7 11/25/7 17/26/7
f 11/27/8 10/28/8 17/29/8
f 5/30/9 8/31/9 18/32/9
f 8/33/7 7/34/10 18/35/11
f 13/36/6 19/37/12 14/38/13
f 13/39/9 16/40/14 19/41/15
f 2/42/8 20/43/16 3/44/17
f 1/45/18 12/46/18 17/17/18 20/20/18
f 3/47/17 20/20/16 19/19/15 16/48/14
f 14/49/13 19/19/12 18/18/11 7/50/10
f 10/51/19 5/52/19 18/18/19 17/17/19
f 9/53/20 12/54/20 21/55/20 22/56/20
f 12/54/20 1/57/20 23/58/20 21/55/20
f 1/57/20 4/59/20 24/60/20 23/58/20
f 4/59/20 3/61/6 25/62/6 24/60/20
f 16/63/6 15/64/20 26/65/20 27/66/6
f 7/67/20 14/68/20 28/69/20 29/70/20
f 6/71/20 5/72/6 30/73/6 31/74/20
f 7/67/20 6/71/20 31/74/20 29/70/20
f 10/75/6 9/53/20 22/56/20 32/76/6
f 16/63/6 3/61/6 25/62/6 27/66/6
f 15/64/20 14/68/20 28/69/20 26/65/20
f 5/72/6 10/75/6 32/76/6 30/73/6
f 31/77/5 30/78/5 33/79/5 34/80/5
f 32/81/5 22/82/5 35/83/5 36/84/5
f 37/85/9 38/86/9 39/87/9 40/88/9
f 41/89/6 42/90/6 43/91/6 44/92/6
f 24/93/5 25/94/5 45/95/5 46/96/5
f 27/97/5 26/98/5 47/99/5 48/100/5
f 44/101/9 43/102/9 49/103/9 50/104/9
f 51/105/7 52/106/7 53/107/7 54/108/7
f 22/82/5 21/109/5 55/110/5 56/111/5
f 57/112/6 58/113/6 59/114/20 60/115/20
f 23/116/5 24/93/5 61/117/5 62/118/5
f 63/119/8 64/120/8 65/121/8 66/122/8
f 29/123/5 31/77/5 67/124/5 68/125/5
f 26/98/5 28/126/5 69/127/5 70/128/5
f 58/129/8 51/130/8 54/131/8 59/132/8
f 52/133/9 57/134/9 60/135/9 53/136/9
f 64/137/5 63/138/5 21/109/5 23/116/5
f 50/139/5 28/126/5 29/123/5 44/140/5
f 71/141/5 72/142/5 30/78/5 32/81/5
f 73/143/5 25/94/5 27/97/5 74/144/5
f 75/145/5 76/146/5 36/84/5 33/79/5
f 77/147/5 78/148/5 31/77/5 34/80/5
f 72/142/5 75/145/5 33/79/5 30/78/5
f 76/146/5 71/141/5 32/81/5 36/84/5
f 79/149/5 80/150/5 35/83/5 22/82/5
f 81/151/5 48/100/5 45/95/5 82/152/5
f 74/144/5 27/97/5 48/100/5 81/151/5
f 82/152/5 45/95/5 25/94/5 73/143/5
f 83/153/5 84/154/5 24/93/5 46/96/5
f 57/155/5 52/156/5 47/99/5 26/98/5
f 85/157/5 86/158/5 62/118/5 55/110/5
f 38/159/5 37/160/5 56/111/5 87/161/5
f 88/162/5 89/163/5 90/164/5 61/117/5
f 80/150/5 38/159/5 87/161/5 35/83/5
f 37/160/5 79/149/5 22/82/5 56/111/5
f 63/138/5 85/157/5 55/110/5 21/109/5
f 86/158/5 64/137/5 23/116/5 62/118/5
f 84/154/5 88/162/5 61/117/5 24/93/5
f 89/163/5 83/153/5 46/96/5 90/164/5
f 41/165/5 68/125/5 69/127/5 91/166/5
f 92/167/5 93/168/5 94/169/5 67/124/5
f 51/170/5 58/171/5 70/128/5 95/172/5
f 52/156/5 51/170/5 95/172/5 47/99/5
f 58/171/5 57/155/5 26/98/5 70/128/5
f 44/140/5 29/123/5 68/125/5 41/165/5
f 78/148/5 92/167/5 67/124/5 31/77/5
f 91/166/5 69/127/5 28/126/5 50/139/5
f 93/168/5 77/147/5 34/80/5 94/169/5
f 96/173/5 97/174/5 98/175/5 99/176/5
f 100/177/5 101/178/5 102/179/5 103/180/5
f 104/181/5 105/182/5 106/183/5 107/184/5
f 108/185/5 109/186/5 110/187/5 111/188/5
f 112/189/5 113/190/5 114/191/5 115/192/5
f 116/193/5 117/194/5 118/195/5 119/196/5
f 120/197/5 121/198/5 122/199/5 123/200/5
f 124/201/5 125/202/5 126/203/5 127/204/5
f 72/205/7 71/206/7 128/207/7 129/208/7
f 92/209/7 78/210/7 130/211/7 131/212/7
f 89/213/9 88/214/9 132/215/9 133/216/9
f 74/217/6 134/218/6 135/219/6 73/220/6
f 50/221/7 49/222/7 136/223/7 91/224/7
f 38/225/6 80/226/6 137/227/20 39/228/20
f 79/229/7 37/230/7 40/231/7 138/232/7
f 78/233/9 77/234/9 139/235/9 130/236/9
f 85/237/6 63/238/6 66/239/20 140/240/20
f 77/241/6 93/242/6 141/243/20 139/244/20
f 75/245/8 72/246/8 129/247/8 142/248/8
f 64/249/7 86/250/7 143/251/7 65/252/7
f 82/253/7 144/254/7 145/255/7 81/256/7
f 71/257/9 76/258/9 146/259/9 128/260/9
f 88/261/6 84/262/6 147/263/20 132/264/20
f 80/265/8 79/266/8 138/267/8 137/268/8
f 83/269/7 89/270/7 133/271/7 148/272/7
f 91/273/8 136/274/8 42/275/8 41/276/8
f 81/277/8 145/278/8 134/279/8 74/280/8
f 73/281/9 135/282/9 144/283/9 82/284/9
f 76/285/6 75/286/6 142/287/20 146/288/20
f 86/289/9 85/290/9 140/291/9 143/292/9
f 84/293/8 83/294/8 148/295/8 147/296/8
f 93/297/8 92/298/8 131/299/8 141/300/8
f 99/301/20 98/302/20 146/303/20 142/304/20
f 101/305/20 102/306/20 144/307/20 145/308/20
f 111/309/20 110/310/20 143/311/20 140/312/20
f 107/313/20 106/314/20 40/315/20 39/316/20
f 115/317/20 114/318/20 133/319/20 132/320/20
f 104/321/20 107/313/20 39/316/20 137/322/20
f 114/318/20 113/323/20 148/324/20 133/319/20
f 125/325/20 126/326/20 136/327/20 42/328/20
f 123/329/20 122/330/20 141/331/20 131/332/20
f 119/333/20 118/334/20 59/335/20 54/336/20
f 116/337/20 119/333/20 54/336/20 53/338/20
f 122/330/20 121/339/20 139/340/20 141/331/20
f 109/341/20 108/342/20 66/343/20 65/344/20
f 127/345/20 124/346/20 43/347/20 49/348/20
f 97/349/20 96/350/20 129/351/20 128/352/20
f 103/353/20 100/354/20 134/355/20 135/356/20
f 121/339/20 120/357/20 130/358/20 139/340/20
f 96/350/20 99/301/20 142/304/20 129/351/20
f 98/302/20 97/349/20 128/352/20 146/303/20
f 105/359/20 104/321/20 137/322/20 138/360/20
f 100/354/20 101/305/20 145/308/20 134/355/20
f 102/306/20 103/353/20 135/356/20 144/307/20
f 113/323/20 112/361/20 147/362/20 148/324/20
f 117/363/20 116/337/20 53/338/20 60/364/20
f 106/314/20 105/359/20 138/360/20 40/315/20
f 108/342/20 111/309/20 140/312/20 66/343/20
f 110/310/20 109/341/20 65/344/20 143/311/20
f 112/361/20 115/317/20 132/320/20 147/362/20
f 118/334/20 117/363/20 60/364/20 59/335/20
f 124/346/20 125/325/20 42/328/20 43/347/20
f 120/357/20 123/329/20 131/332/20 130/358/20
f 126/326/20 127/345/20 49/348/20 136/327/20
f 35/365/7 87/366/7 149/367/7 150/368/7
f 95/369/9 70/370/9 151/371/9 152/372/9
f 48/373/6 47/374/6 153/375/6 154/376/6
f 62/377/8 61/378/8 155/379/8 156/380/8
f 47/374/6 95/381/6 152/382/6 153/375/6
f 46/383/6 45/384/6 157/385/6 158/386/6
f 33/387/7 36/388/7 159/389/7 160/390/7
f 36/388/7 35/365/7 150/368/7 159/389/7
f 56/391/8 55/392/8 161/393/8 162/394/8
f 34/395/7 33/387/7 160/390/7 163/396/7
f 55/392/8 62/377/8 156/380/8 161/393/8
f 68/397/9 67/398/9 164/399/9 165/400/9
f 90/401/6 46/383/6 158/386/6 166/402/6
f 87/403/8 56/391/8 162/394/8 149/404/8
f 70/370/9 69/405/9 167/406/9 151/371/9
f 68/397/9 165/400/9 167/406/9 69/405/9
f 61/378/8 90/407/8 166/408/8 155/379/8
f 94/409/7 34/395/7 163/396/7 168/410/7
f 48/373/6 154/376/6 157/385/6 45/384/6
f 67/398/9 94/411/9 168/412/9 164/399/9
