# Blender v2.81 (sub 16) OBJ File: 'CampFire.blend'
# www.blender.org
mtllib CampFire.mtl
o Cylinder
v 0.000000 15.000004 -81.685692
v 0.000000 14.999996 81.685692
v 7.500000 12.990385 -81.685692
v 7.500000 12.990377 81.685692
v 12.990381 7.500003 -81.685692
v 12.990381 7.499996 81.685692
v 15.000000 0.000003 -81.685692
v 15.000000 -0.000004 81.685692
v 12.990381 -7.499998 -81.685692
v 12.990381 -7.500004 81.685692
v 7.500001 -12.990377 -81.685692
v 7.500001 -12.990385 81.685692
v 0.000002 -14.999996 -81.685692
v 0.000002 -15.000004 81.685692
v -7.499997 -12.990378 -81.685692
v -7.499997 -12.990386 81.685692
v -12.990378 -7.500001 -81.685692
v -12.990378 -7.500008 81.685692
v -15.000000 -0.000003 -81.685692
v -15.000000 -0.000011 81.685692
v -12.990385 7.499996 -81.685692
v -12.990385 7.499989 81.685692
v -7.500009 12.990380 -81.685692
v -7.500009 12.990373 81.685692
v -81.685692 15.000004 0.000004
v 81.685692 14.999996 -0.000004
v -81.685692 12.990384 -7.499997
v 81.685692 12.990377 -7.500004
v -81.685692 7.500003 -12.990378
v 81.685692 7.499996 -12.990385
v -81.685692 0.000003 -14.999997
v 81.685692 -0.000004 -15.000004
v -81.685692 -7.499998 -12.990378
v 81.685692 -7.500005 -12.990385
v -81.685692 -12.990377 -7.499997
v 81.685692 -12.990384 -7.500004
v -81.685692 -14.999996 0.000001
v 81.685692 -15.000004 -0.000006
v -81.685692 -12.990379 7.500001
v 81.685692 -12.990386 7.499994
v -81.685692 -7.500000 12.990381
v 81.685692 -7.500008 12.990375
v -81.685692 -0.000003 15.000004
v 81.685692 -0.000011 14.999997
v -81.685692 7.499996 12.990389
v 81.685692 7.499989 12.990381
v -81.685692 12.990380 7.500013
v 81.685692 12.990373 7.500006
v -57.760502 15.000005 -57.760502
v 57.760502 14.999996 57.760502
v -52.457199 12.990384 -63.063805
v 63.063805 12.990378 52.457207
v -48.574917 7.500003 -66.946091
v 66.946091 7.499996 48.574921
v -47.153900 0.000003 -68.367104
v 68.367104 -0.000004 47.153900
v -48.574917 -7.499997 -66.946091
v 66.946091 -7.500004 48.574921
v -52.457203 -12.990377 -63.063805
v 63.063805 -12.990383 52.457199
v -57.760502 -14.999996 -57.760502
v 57.760502 -15.000005 57.760502
v -63.063797 -12.990379 -52.457207
v 52.457203 -12.990386 63.063805
v -66.946083 -7.500002 -48.574921
v 48.574921 -7.500008 66.946091
v -68.367104 -0.000003 -47.153900
v 47.153900 -0.000011 68.367104
v -66.946091 7.499996 -48.574913
v 48.574913 7.499989 66.946091
v -63.063812 12.990379 -52.457195
v 52.457195 12.990373 63.063812
v -57.760502 15.000003 57.760502
v 57.760502 14.999996 -57.760502
v -63.063805 12.990385 52.457199
v 52.457203 12.990377 -63.063805
v -66.946091 7.500003 48.574913
v 48.574917 7.499996 -66.946091
v -68.367104 0.000003 47.153900
v 47.153900 -0.000004 -68.367104
v -66.946091 -7.499997 48.574921
v 48.574917 -7.500004 -66.946091
v -63.063805 -12.990376 52.457207
v 52.457199 -12.990384 -63.063805
v -57.760506 -14.999996 57.760502
v 57.760498 -15.000003 -57.760502
v -52.457203 -12.990379 63.063805
v 63.063797 -12.990387 -52.457207
v -48.574921 -7.500001 66.946091
v 66.946083 -7.500009 -48.574921
v -47.153900 -0.000003 68.367104
v 68.367104 -0.000011 -47.153900
v -48.574913 7.499996 66.946091
v 66.946091 7.499989 -48.574913
v -52.457195 12.990379 63.063812
v 63.063812 12.990372 -52.457195
vt 0.818337 0.714051
vt 0.818337 0.855089
vt 0.786266 0.855089
vt 0.786266 0.714051
vt 0.102614 0.851910
vt 0.102614 0.992948
vt 0.076428 0.992948
vt 0.076428 0.851910
vt 0.040657 0.992948
vt 0.040657 0.851910
vt 0.004886 0.992948
vt 0.004886 0.851910
vt 0.476997 0.855201
vt 0.476997 0.714163
vt 0.509068 0.714163
vt 0.509068 0.855201
vt 0.546101 0.714163
vt 0.546101 0.855201
vt 0.578172 0.714163
vt 0.578172 0.855201
vt 0.897386 0.855089
vt 0.897386 0.714051
vt 0.923572 0.714051
vt 0.923572 0.855089
vt 0.959343 0.714051
vt 0.959343 0.855089
vt 0.995114 0.714051
vt 0.995114 0.855089
vt 0.340060 0.831899
vt 0.321544 0.800288
vt 0.321535 0.763785
vt 0.340035 0.732174
vt 0.372087 0.713923
vt 0.409102 0.713923
vt 0.441163 0.732174
vt 0.459679 0.763786
vt 0.459688 0.800288
vt 0.441188 0.831899
vt 0.409136 0.850150
vt 0.372121 0.850150
vt 0.887441 0.714051
vt 0.887441 0.855089
vt 0.855370 0.855089
vt 0.855370 0.714051
vt 0.774300 0.800164
vt 0.755792 0.831780
vt 0.723736 0.850039
vt 0.686720 0.850048
vt 0.654664 0.831804
vt 0.636156 0.800197
vt 0.636156 0.763695
vt 0.654664 0.732079
vt 0.686720 0.713820
vt 0.723736 0.713811
vt 0.755792 0.732054
vt 0.774300 0.763661
vt 0.007151 0.806455
vt 0.007151 0.038403
vt 0.016937 0.038403
vt 0.016937 0.806455
vt 0.043261 0.038403
vt 0.043261 0.806455
vt 0.079069 0.038403
vt 0.079070 0.806455
vt 0.114767 0.038403
vt 0.114767 0.806455
vt 0.140789 0.038403
vt 0.140789 0.806455
vt 0.150163 0.038403
vt 0.150163 0.806455
vt 0.307477 0.038403
vt 0.307477 0.806455
vt 0.297690 0.806455
vt 0.297690 0.038403
vt 0.271366 0.806455
vt 0.271366 0.038403
vt 0.235558 0.806455
vt 0.235558 0.038403
vt 0.199860 0.806455
vt 0.199860 0.038403
vt 0.982847 0.138793
vt 0.975815 0.147911
vt 0.969725 0.138156
vt 0.966210 0.112143
vt 0.966210 0.076841
vt 0.969725 0.041709
vt 0.975815 0.016162
vt 0.982847 0.007043
vt 0.988936 0.016798
vt 0.992452 0.042811
vt 0.992452 0.078114
vt 0.988936 0.113245
vt 0.173838 0.806455
vt 0.173838 0.038403
vt 0.164464 0.806455
vt 0.164464 0.038403
vt 0.601180 0.855022
vt 0.594148 0.845904
vt 0.588059 0.820357
vt 0.584543 0.785225
vt 0.584543 0.749923
vt 0.588059 0.723909
vt 0.594148 0.714155
vt 0.601180 0.723273
vt 0.607270 0.748820
vt 0.610785 0.783952
vt 0.610785 0.819254
vt 0.607270 0.845268
vt 0.793674 0.623474
vt 0.802552 0.080440
vt 0.812829 0.055724
vt 0.803951 0.598758
vt 0.839508 0.038043
vt 0.830630 0.581077
vt 0.875440 0.032136
vt 0.866562 0.575170
vt 0.910997 0.039586
vt 0.902119 0.582619
vt 0.936652 0.058395
vt 0.927774 0.601429
vt 0.953870 0.053166
vt 0.953870 0.587151
vt 0.944280 0.561945
vt 0.944280 0.027960
vt 0.645276 0.626559
vt 0.636398 0.083525
vt 0.646675 0.108241
vt 0.655553 0.651275
vt 0.673354 0.125922
vt 0.682232 0.668956
vt 0.709286 0.131829
vt 0.718164 0.674863
vt 0.744843 0.124380
vt 0.753721 0.667413
vt 0.769099 0.055724
vt 0.779376 0.080440
vt 0.770498 0.105570
vt 0.645276 0.058395
vt 0.670931 0.039586
vt 0.706488 0.032136
vt 0.742420 0.038043
vt 0.779376 0.648604
vt 0.964418 0.027960
vt 0.964418 0.561945
vt 0.954829 0.587151
vt 0.954829 0.053166
vt 0.936652 0.626559
vt 0.926375 0.651275
vt 0.899696 0.668956
vt 0.863764 0.674863
vt 0.828207 0.667413
vt 0.802552 0.648604
vt 0.321778 0.625514
vt 0.321778 0.082410
vt 0.331649 0.107287
vt 0.331649 0.650391
vt 0.358036 0.125389
vt 0.358036 0.668493
vt 0.393866 0.131865
vt 0.393866 0.674970
vt 0.429541 0.124982
vt 0.429541 0.668086
vt 0.455500 0.106582
vt 0.455500 0.649687
vt 0.464788 0.081597
vt 0.464788 0.624701
vt 0.622099 0.082410
vt 0.622099 0.625514
vt 0.612227 0.650391
vt 0.612227 0.107287
vt 0.585841 0.668493
vt 0.585841 0.125388
vt 0.550010 0.674970
vt 0.550010 0.131865
vt 0.514336 0.668086
vt 0.514336 0.124982
vt 0.331066 0.057425
vt 0.357025 0.039025
vt 0.392699 0.032141
vt 0.428530 0.038618
vt 0.454916 0.056720
vt 0.488377 0.649687
vt 0.488377 0.106582
vt 0.479089 0.624701
vt 0.479089 0.081597
vt 0.488960 0.056720
vt 0.515347 0.038618
vt 0.551177 0.032141
vt 0.586852 0.039025
vt 0.612811 0.057425
vn 0.2588 0.9659 0.0000
vn 0.7071 0.7071 0.0000
vn 0.9659 0.2588 0.0000
vn 0.9659 -0.2588 -0.0000
vn 0.7071 -0.7071 -0.0000
vn 0.2588 -0.9659 -0.0000
vn -0.2588 -0.9659 -0.0000
vn -0.7071 -0.7071 -0.0000
vn -0.9659 -0.2588 -0.0000
vn -0.9659 0.2588 0.0000
vn -0.0000 0.0000 1.0000
vn -0.7071 0.7071 0.0000
vn -0.2588 0.9659 0.0000
vn 0.0000 0.0000 -1.0000
vn 0.0000 0.9659 -0.2588
vn 0.0000 0.7071 -0.7071
vn -0.0000 0.2588 -0.9659
vn -0.0000 -0.2588 -0.9659
vn -0.0000 -0.7071 -0.7071
vn -0.0000 -0.9659 -0.2588
vn -0.0000 -0.9659 0.2588
vn 0.0000 -0.7071 0.7071
vn 0.0000 -0.2588 0.9659
vn 0.0000 0.2588 0.9659
vn 1.0000 0.0000 0.0000
vn 0.0000 0.7071 0.7071
vn 0.0000 0.9659 0.2588
vn -1.0000 0.0000 0.0000
vn 0.1830 0.9659 -0.1830
vn 0.5000 0.7071 -0.5000
vn 0.6830 0.2588 -0.6830
vn 0.6830 -0.2588 -0.6830
vn 0.5000 -0.7071 -0.5000
vn 0.1830 -0.9659 -0.1830
vn -0.1830 -0.9659 0.1830
vn -0.5000 -0.7071 0.5000
vn -0.6830 -0.2588 0.6830
vn -0.6830 0.2588 0.6830
vn 0.7071 -0.0000 0.7071
vn -0.5000 0.7071 0.5000
vn -0.1830 0.9659 0.1830
vn -0.7071 0.0000 -0.7071
vn -0.1830 0.9659 -0.1830
vn -0.5000 0.7071 -0.5000
vn -0.6830 0.2588 -0.6830
vn -0.6830 -0.2588 -0.6830
vn -0.5000 -0.7071 -0.5000
vn -0.1830 -0.9659 -0.1830
vn 0.1830 -0.9659 0.1830
vn 0.5000 -0.7071 0.5000
vn 0.6830 -0.2588 0.6830
vn 0.6830 0.2588 0.6830
vn 0.7071 -0.0000 -0.7071
vn 0.5000 0.7071 0.5000
vn 0.1830 0.9659 0.1830
vn -0.7071 0.0000 0.7071
usemtl Material.001
s off
f 1/1/1 2/2/1 4/3/1 3/4/1
f 3/5/2 4/6/2 6/7/2 5/8/2
f 5/8/3 6/7/3 8/9/3 7/10/3
f 7/10/4 8/9/4 10/11/4 9/12/4
f 9/13/5 10/14/5 12/15/5 11/16/5
f 11/16/6 12/15/6 14/17/6 13/18/6
f 13/18/7 14/17/7 16/19/7 15/20/7
f 15/21/8 16/22/8 18/23/8 17/24/8
f 17/24/9 18/23/9 20/25/9 19/26/9
f 19/26/10 20/25/10 22/27/10 21/28/10
f 4/29/11 2/30/11 24/31/11 22/32/11 20/33/11 18/34/11 16/35/11 14/36/11 12/37/11 10/38/11 8/39/11 6/40/11
f 21/41/12 22/42/12 24/43/12 23/44/12
f 23/44/13 24/43/13 2/2/13 1/1/13
f 1/45/14 3/46/14 5/47/14 7/48/14 9/49/14 11/50/14 13/51/14 15/52/14 17/53/14 19/54/14 21/55/14 23/56/14
f 25/57/15 26/58/15 28/59/15 27/60/15
f 27/60/16 28/59/16 30/61/16 29/62/16
f 29/62/17 30/61/17 32/63/17 31/64/17
f 31/64/18 32/63/18 34/65/18 33/66/18
f 33/66/19 34/65/19 36/67/19 35/68/19
f 35/68/20 36/67/20 38/69/20 37/70/20
f 37/71/21 38/72/21 40/73/21 39/74/21
f 39/74/22 40/73/22 42/75/22 41/76/22
f 41/76/23 42/75/23 44/77/23 43/78/23
f 43/78/24 44/77/24 46/79/24 45/80/24
f 28/81/25 26/82/25 48/83/25 46/84/25 44/85/25 42/86/25 40/87/25 38/88/25 36/89/25 34/90/25 32/91/25 30/92/25
f 45/80/26 46/79/26 48/93/26 47/94/26
f 47/94/27 48/93/27 26/95/27 25/96/27
f 25/97/28 27/98/28 29/99/28 31/100/28 33/101/28 35/102/28 37/103/28 39/104/28 41/105/28 43/106/28 45/107/28 47/108/28
f 49/109/29 50/110/29 52/111/29 51/112/29
f 51/112/30 52/111/30 54/113/30 53/114/30
f 53/114/31 54/113/31 56/115/31 55/116/31
f 55/116/32 56/115/32 58/117/32 57/118/32
f 57/118/33 58/117/33 60/119/33 59/120/33
f 59/121/34 60/122/34 62/123/34 61/124/34
f 61/125/35 62/126/35 64/127/35 63/128/35
f 63/128/36 64/127/36 66/129/36 65/130/36
f 65/130/37 66/129/37 68/131/37 67/132/37
f 67/132/38 68/131/38 70/133/38 69/134/38
f 52/135/39 50/136/39 72/137/39 70/133/39 68/131/39 66/129/39 64/127/39 62/126/39 60/138/39 58/139/39 56/140/39 54/141/39
f 69/134/40 70/133/40 72/137/40 71/142/40
f 71/143/41 72/144/41 50/145/41 49/146/41
f 49/109/42 51/112/42 53/114/42 55/116/42 57/118/42 59/120/42 61/147/42 63/148/42 65/149/42 67/150/42 69/151/42 71/152/42
f 73/153/43 74/154/43 76/155/43 75/156/43
f 75/156/44 76/155/44 78/157/44 77/158/44
f 77/158/45 78/157/45 80/159/45 79/160/45
f 79/160/46 80/159/46 82/161/46 81/162/46
f 81/162/47 82/161/47 84/163/47 83/164/47
f 83/164/48 84/163/48 86/165/48 85/166/48
f 85/167/49 86/168/49 88/169/49 87/170/49
f 87/170/50 88/169/50 90/171/50 89/172/50
f 89/172/51 90/171/51 92/173/51 91/174/51
f 91/174/52 92/173/52 94/175/52 93/176/52
f 76/155/53 74/154/53 96/177/53 94/178/53 92/179/53 90/180/53 88/181/53 86/165/53 84/163/53 82/161/53 80/159/53 78/157/53
f 93/176/54 94/175/54 96/182/54 95/183/54
f 95/183/55 96/182/55 74/184/55 73/185/55
f 73/185/56 75/186/56 77/187/56 79/188/56 81/189/56 83/190/56 85/167/56 87/170/56 89/172/56 91/174/56 93/176/56 95/183/56
